<svg width="666" height="358" fill="none" xmlns="http://www.w3.org/2000/svg"><g filter="url(#filter0_d_2257_8397)"><path d="M224.555 189.308v38.219h-28.107V281h-47.817v-53.473H50.255v-42.675l91.349-150.82h54.844v155.276h28.107zm-138.137 0h62.213V82.02L86.418 189.308zm246.625 97.862c-31.649 0-53.873-11.083-66.669-33.249-12.683-22.166-19.024-53.758-19.024-94.777s6.341-72.668 19.024-94.948c12.796-22.28 35.02-33.42 66.669-33.42 31.649 0 53.873 11.14 66.669 33.42 12.683 22.28 19.024 53.929 19.024 94.948 0 41.019-6.398 72.611-19.195 94.777-12.683 22.166-34.849 33.249-66.498 33.249zm28.622-62.556c4.456-15.082 6.684-36.906 6.684-65.47 0-29.936-2.286-52.102-6.856-66.498-4.456-14.397-13.939-21.595-28.45-21.595s-24.108 7.198-28.793 21.595c-4.685 14.396-7.027 36.562-7.027 66.498 0 28.564 2.342 50.445 7.027 65.641 4.685 15.082 14.282 22.623 28.793 22.623s24.051-7.598 28.622-22.794zm253.652-35.306v38.219h-28.108V281h-47.816v-53.473h-98.376v-42.675l91.349-150.82h54.843v155.276h28.108zm-138.138 0h62.214V82.02l-62.214 107.288z" fill="url(#paint0_linear_2257_8397)"/></g><defs><linearGradient id="paint0_linear_2257_8397" x1="425.065" y1="267.6" x2="678.224" y2="200.398" gradientUnits="userSpaceOnUse"><stop stop-color="#00BBE4"/><stop offset="1" stop-color="#A2D537"/></linearGradient><filter id="filter0_d_2257_8397" x=".258" y=".775" width="665.062" height="356.395" filterUnits="userSpaceOnUse" color-interpolation-filters="sRGB"><feFlood flood-opacity="0" result="BackgroundImageFix"/><feColorMatrix in="SourceAlpha" values="0 0 0 0 0 0 0 0 0 0 0 0 0 0 0 0 0 0 127 0" result="hardAlpha"/><feOffset dy="20"/><feGaussianBlur stdDeviation="25"/><feColorMatrix values="0 0 0 0 0.392157 0 0 0 0 0.831373 0 0 0 0 0.858824 0 0 0 0.25 0"/><feBlend in2="BackgroundImageFix" result="effect1_dropShadow_2257_8397"/><feBlend in="SourceGraphic" in2="effect1_dropShadow_2257_8397" result="shape"/></filter></defs></svg>