<svg width="29" height="29" fill="none" xmlns="http://www.w3.org/2000/svg"><path d="M20.019 15.121h.837c.956 0 1.494-.407 1.611-1.224l.065-.515c.118-.827-.3-1.241-1.257-1.241h-2.11l-.403 2.867c.214.044.418.074.612.09.193.015.409.023.645.023z" fill="#F04D44"/><path d="M28.945 14.471C28.945 6.48 22.465 0 14.473 0c-1.55 0-3.038.25-4.438.7L8.393 11.693c-.014.1-.046.19-.084.279l-.633 4.55a27.13 27.13 0 00-.09.74c-.027.248-.046.487-.056.717-.011.232-.006.444.016.637.022.194.06.36.112.5.151.172.361.3.63.387.268.085.558.13.87.13.418 0 .82-.08 1.208-.235.386-.155.649-.384.789-.684.075-.162.137-.38.186-.654.048-.273.11-.657.185-1.152l.837-6.057a3.43 3.43 0 01.146-.622.597.597 0 01.234-.313.835.835 0 01.393-.113c.162-.011.37-.016.629-.016.301 0 .537.003.71.008.172.006.295.04.37.105.075.064.112.17.112.315 0 .144-.02.356-.063.636l-.838 6.057c-.043.29-.088.594-.137.911a5.328 5.328 0 01-.201.863 4.795 4.795 0 01-.693 1.353 4.56 4.56 0 01-1.081 1.046 4.926 4.926 0 01-1.409.67 5.441 5.441 0 01-1.667.217c-1.248-.01-2.208-.294-2.885-.853-.676-.559-1.026-1.37-1.048-2.433 0-.26.014-.539.04-.839.028-.301.068-.607.122-.918l.837-6.074c.028-.175.06-.313.092-.436l1.27-8.5C2.94 4.41 0 9.094 0 14.47c0 7.9 6.328 14.306 14.19 14.46l1.534-10.279.957-6.88a1.393 1.393 0 01-.499-.314.741.741 0 01-.21-.38l.097-.789a.55.55 0 01.202-.362.61.61 0 01.394-.137h5.06c1.342 0 2.293.288 2.852.862.558.575.752 1.448.58 2.618l-.113.854c-.162 1.128-.602 1.971-1.321 2.53-.72.559-1.746.838-3.078.838h-.338a51.105 51.105 0 00-1.192-.041 4.103 4.103 0 01-.613-.04h-.032v-.016l-1.695 11.35c6.895-1.105 12.17-7.064 12.17-14.272z" fill="#F04D44"/><path d="M14.958 10.215c0-.145-.038-.25-.113-.314-.075-.065-.198-.1-.37-.105a25.93 25.93 0 00-.71-.008 9.64 9.64 0 00-.628.016.841.841 0 00-.394.112.598.598 0 00-.234.314 3.421 3.421 0 00-.146.621l-.837 6.058a52.03 52.03 0 01-.185 1.152c-.048.275-.11.491-.186.654-.14.3-.402.528-.79.684a3.21 3.21 0 01-1.207.234c-.312 0-.602-.044-.87-.13a1.367 1.367 0 01-.63-.386 2.058 2.058 0 01-.112-.5 4.052 4.052 0 01-.016-.637c.01-.23.029-.47.057-.716.025-.248.056-.495.089-.741l.633-4.55c.039-.089.07-.18.084-.279L10.035.7c-.961.31-1.876.722-2.74 1.216l-1.269 8.501a4.258 4.258 0 00-.092.435l-.837 6.075a11.63 11.63 0 00-.122.918c-.026.3-.04.58-.04.839.022 1.062.372 1.873 1.048 2.433.677.558 1.637.842 2.885.853a5.435 5.435 0 001.667-.218c.52-.155.991-.378 1.41-.669.418-.29.778-.638 1.08-1.046.3-.41.532-.86.693-1.353.085-.26.152-.546.2-.863.05-.317.095-.62.138-.911l.838-6.058c.042-.28.064-.491.064-.636zm7.572 3.166l-.064.516c-.117.816-.655 1.224-1.611 1.224h-.838c-.236 0-.451-.009-.645-.024a5.167 5.167 0 01-.612-.09l.403-2.866h2.11c.957 0 1.376.414 1.257 1.24zm2.048-2.731c-.56-.574-1.51-.861-2.852-.861h-5.06a.61.61 0 00-.395.136.55.55 0 00-.202.363l-.097.789a.74.74 0 00.21.379c.12.124.284.228.5.314l-.958 6.88-1.534 10.28c.095 0 .188.013.283.013.786 0 1.551-.08 2.303-.2l1.695-11.35v.016h.032c.107.022.31.035.612.04.3.006.698.02 1.193.041h.337c1.332 0 2.358-.28 3.078-.838.72-.558 1.159-1.402 1.32-2.53l.114-.854c.172-1.17-.022-2.043-.58-2.618z" fill="#fff"/></svg>