<svg width="124" height="124" fill="none" xmlns="http://www.w3.org/2000/svg"><path d="M88 60l-6.5 7-3 9.5 2 8 4 5.5 6 4.5 8 2L108 94l5.5-4.5L117 83l1-8-2.5-8-4-5.5-6-3-8-1.5-9.5 3z" fill="#E4F7FF"/><path d="M115.582 58.62l2.16-3.188a.965.965 0 00.005-1.078.96.96 0 00-.267-.269l-4.843-3.255a.979.979 0 00-.728-.148.968.968 0 00-.619.41l-2.092 3.158a24.713 24.713 0 00-7.024-2.18v-3.545h1.027a2.906 2.906 0 002.906-2.907v-.261a2.906 2.906 0 00-2.906-2.906h-9.813a2.906 2.906 0 00-2.907 2.906v.261a2.906 2.906 0 002.907 2.907h1.036v3.516a25.187 25.187 0 00-15.326 41.26H7.13a4.718 4.718 0 01-4.708-4.709V78.004H68.48a.969.969 0 000-1.938H2.42V19.927a4.708 4.708 0 014.71-4.697h99.064a4.71 4.71 0 014.709 4.698V44.33a.971.971 0 00.968.969.967.967 0 00.969-.969V19.927a6.653 6.653 0 00-6.646-6.636H7.13a6.655 6.655 0 00-6.646 6.636v68.665a6.655 6.655 0 006.646 6.646h34.526L38.75 108.8H28.24a.967.967 0 00-.686 1.654.967.967 0 00.685.284h56.846a.968.968 0 00.685-1.654.968.968 0 00-.685-.284H74.594l-2.906-13.562h9.251a25.21 25.21 0 0018.02 6.885 25.2 25.2 0 0017.611-7.873 25.207 25.207 0 00-.988-35.63zm-3.207-5.64l3.207 2.17-1.483 2.18a25.745 25.745 0 00-3.187-2.189l1.463-2.16zm-19.966-7.37v-.262a.969.969 0 01.969-.969h9.813a.967.967 0 01.969.97v.26a.968.968 0 01-.969.97h-9.803a.969.969 0 01-.979-.97zm3.953 2.906h3.875v3.294a25.892 25.892 0 00-1.938-.078c-.649 0-1.298 0-1.937.078v-3.294zm-23.706 60.256H40.687l2.907-13.562H69.75l2.906 13.562zm25.691-8.525a23.25 23.25 0 1123.251-23.25 23.308 23.308 0 01-23.299 23.25h.048z" fill="#00BBE4"/><path d="M114.246 69.895a.955.955 0 00-.534-.517.972.972 0 00-.744.014l-13.214 5.812a2.238 2.238 0 10.775 1.773l13.214-5.813a.969.969 0 00.503-1.269z" fill="#00BBE4"/><path d="M112.879 62.3h-.058a20.566 20.566 0 00-29.063 0 20.567 20.567 0 000 29.063v.058a20.595 20.595 0 0029.063 0h.058v-.058a20.566 20.566 0 000-29.063zm1.308 15.5h2.741a18.632 18.632 0 01-4.776 11.519l-1.937-1.938a.97.97 0 00-1.366 1.366l1.938 1.938a18.486 18.486 0 01-11.51 4.776v-2.693a.969.969 0 00-1.937 0v2.741a18.484 18.484 0 01-11.518-4.776l1.937-1.937a.968.968 0 10-1.375-1.366l-1.938 1.937A18.639 18.639 0 0179.67 77.85h2.742a.968.968 0 100-1.938H79.66a18.64 18.64 0 014.775-11.518l1.938 1.937a.97.97 0 00.688.281.968.968 0 00.688-.28.969.969 0 000-1.367l-1.938-1.937a18.484 18.484 0 0111.519-4.776v2.78a.969.969 0 101.937 0v-2.78a18.534 18.534 0 0111.519 4.776l-1.938 1.938a.964.964 0 00-.204 1.046.966.966 0 001.57.32l1.937-1.938a18.632 18.632 0 014.776 11.518h-2.741a.97.97 0 000 1.938v-.05zm-60.906 8.128a3.43 3.43 0 106.861 0 3.43 3.43 0 00-6.86 0zm4.922 0a1.492 1.492 0 11-1.492-1.492 1.492 1.492 0 011.414 1.492h.078zM26.728 29.595a.969.969 0 00-.968-.968H14.367a.97.97 0 00-.969.968v11.393a.968.968 0 00.97.969H25.76a.969.969 0 00.968-.97V29.596zM24.791 40.02h-9.455v-9.455h9.455v9.455zm54.918-11.393H35.844a.97.97 0 000 1.937h43.865a.969.969 0 000-1.937zm0 5.696H35.844a.969.969 0 100 1.937h43.865a.969.969 0 000-1.937zm0 5.696H35.844a.969.969 0 000 1.938h43.865a.969.969 0 100-1.938zM25.76 51.412H14.367a.969.969 0 00-.969.968v11.393a.969.969 0 00.97.969H25.76a.969.969 0 00.968-.97V52.38a.968.968 0 00-.968-.968zm-.97 11.392h-9.454V53.35h9.455v9.455zM80.677 52.38a.969.969 0 00-.968-.968H35.844a.969.969 0 000 1.937h43.865a.969.969 0 00.968-.969zM58.93 57.156H35.843a.969.969 0 000 1.938h23.085a.969.969 0 000-1.938zm0 5.648H35.843a.969.969 0 100 1.938h23.085a.969.969 0 000-1.938z" fill="#00BBE4"/></svg>