<svg width="96" height="96" fill="none" xmlns="http://www.w3.org/2000/svg"><path d="M24.387 31.742l-4.258 8.129 7.742 11.226 12.387 13.161 13.548.774 10.452-9.677 5.806-8.13 6.194-6.193-6.194-12-10.451-7.355-8.903-2.322-6.968.774-10.452 3.484-8.903 8.129z" fill="#E4F7FF"/><path d="M34.014 17.415a.749.749 0 00-.225.532.75.75 0 10.754-.75.75.75 0 00-.529.218z" fill="#00BBE4"/><path d="M94.875 48a.75.75 0 00-.75.75c0 5.123-7.657 9.75-19.192 12.645a29.782 29.782 0 001.814-20.498c3.848-5.895 7.133-12.75 7.133-19.5a6.036 6.036 0 001.626-9.49 6.038 6.038 0 00-9.576 1.015c-4.935-.172-11.865 2.363-19.65 7.193A29.768 29.768 0 0019.965 38.61a66.496 66.496 0 01-2.948-5.43c-3.862-8.032-4.454-14.25-1.634-17.078a.75.75 0 00-1.058-1.057c-3.352 3.345-2.872 10.02 1.343 18.788.3.622.622 1.26.952 1.89C6.15 39 .375 43.596.375 48.75c0 5.25 6.255 9.907 16.267 13.035-.367.833-.81 1.973-1.222 3-.412 1.028-.713 1.823-.908 2.25a.75.75 0 00.368.998.645.645 0 00.315.067.75.75 0 00.675-.435c.217-.458.555-1.313.945-2.31.39-.998.915-2.333 1.275-3.135 1.26.365 2.573.705 3.938 1.02a29.948 29.948 0 0015.997 13.5c-1.5.89-3.025 1.723-4.575 2.498-4.328 2.182-9.383 4.327-14.085 3.825a4.598 4.598 0 10-4.32 3 4.613 4.613 0 003.563-1.688.75.75 0 00.314.12c.615.081 1.233.121 1.853.12 4.598 0 9.285-2.017 13.35-4.065a96.84 96.84 0 005.797-3.24 29.587 29.587 0 0016.216 0c7.612 4.74 14.384 7.26 19.334 7.26 2.633 0 4.748-.705 6.203-2.16 2.693-2.7 2.933-7.5.683-13.95a.75.75 0 00-1.418.495c2.047 5.85 1.935 10.133-.322 12.39-3.533 3.525-12.173 1.627-22.59-4.635a30 30 0 0015.944-13.5c13.118-3 21.653-8.333 21.653-14.49a.75.75 0 00-.75-.72zm-79.83 36.57a3.105 3.105 0 11-.015-6.21 3.105 3.105 0 01.015 6.21zm61.237-35.917a28.101 28.101 0 01-3.254 13.162 108.096 108.096 0 01-16.058 2.25 139.13 139.13 0 0011.138-11.872c2.092-2.513 4.867-5.835 7.5-9.645.446 2.004.672 4.051.674 6.105zM81.09 11.43a4.56 4.56 0 11-4.178 2.768.747.747 0 00.27-.51 4.553 4.553 0 013.908-2.258zm-5.813 2.91a6.197 6.197 0 00-.232 1.635 6 6 0 007.328 5.903C82.207 27.75 79.5 33.705 76.17 39a29.94 29.94 0 00-18-18.337c6.765-4.073 12.75-6.278 17.108-6.323zm-3.33 19.29H59.31c-1.5-5.903-3.825-10.5-6.66-12.87a28.351 28.351 0 0119.298 12.87zM47.25 20.437V33.63h-9c1.987-7.38 5.288-12.57 9-13.193zm0 14.693v12.495H36.465c.053-4.204.54-8.391 1.455-12.495h9.33zm1.5 0h9.33a60.958 60.958 0 011.455 12.495H48.75V35.13zm0-1.5V20.437c3.75.623 7.013 5.783 9 13.193h-9zm-5.4-12.87c-2.85 2.4-5.175 6.99-6.66 12.87H24.053A28.35 28.35 0 0143.35 20.76zM23.167 35.13h13.178a63.005 63.005 0 00-1.38 12.495H31.14a.75.75 0 100 1.5h3.825c0 1.958.097 3.915.27 5.813a.75.75 0 00.75.682h.068a.75.75 0 00.697-.817 64.01 64.01 0 01-.263-5.678H47.25v8.932a.75.75 0 101.5 0v-8.932h10.785c0 1.913-.09 3.818-.262 5.678a.753.753 0 101.5.135 67.78 67.78 0 00.27-5.813h3.825a.75.75 0 100-1.5h-3.825a63.005 63.005 0 00-1.38-12.495h13.17a27.978 27.978 0 012.25 5.482 125.077 125.077 0 01-8.123 10.62 136.46 136.46 0 01-12.33 13.013c-2.17.115-4.38.172-6.63.172-2.182 0-4.328-.06-6.435-.165a135.93 135.93 0 01-4.657-4.432A116.465 116.465 0 0121 40.267a27.33 27.33 0 012.168-5.137zm-2.707 7.095a119.512 119.512 0 0015.383 18.652c1.1 1.1 2.217 2.178 3.352 3.233a108.983 108.983 0 01-16.223-2.295 28.101 28.101 0 01-3.255-13.162 28.43 28.43 0 01.743-6.428zM1.875 48.75c0-4.388 5.64-8.625 15.465-11.648a67.768 67.768 0 002.018 3.428 29.752 29.752 0 001.71 20.865C9.531 58.5 1.874 53.842 1.874 48.75zM24 63.645a112.37 112.37 0 0016.935 2.085c.667.608 1.335 1.2 2.01 1.785.675.585 1.5 1.275 2.25 1.89a.751.751 0 001.057-.105.75.75 0 00-.082-1.05c-.75-.608-1.5-1.23-2.25-1.868-.21-.172-.413-.36-.615-.54 1.53.05 3.083.078 4.657.083 1.65 0 3.27 0 4.875-.09a98.772 98.772 0 01-13.17 9.87A28.417 28.417 0 0124 63.645zm32.34 12a81.855 81.855 0 01-5.618-3.855.75.75 0 00-.892 1.207c1.545 1.14 3.06 2.19 4.553 3.173a28.087 28.087 0 01-12.75 0 103.077 103.077 0 0013.552-10.5c5.648-.25 11.27-.927 16.815-2.025a28.395 28.395 0 01-15.63 12.03l-.03-.03z" fill="#00BBE4"/><path d="M91.695 43.5a.75.75 0 00.503-1.305 18.476 18.476 0 00-2.04-1.59.75.75 0 10-.847 1.238 16.39 16.39 0 011.882 1.5.75.75 0 00.502.157zm-5.333-5.055a.418.418 0 00-.128-.068.749.749 0 00-.817.157.864.864 0 00-.158.248.63.63 0 00-.06.286.75.75 0 001.05.682.894.894 0 00.248-.165.75.75 0 00.157-.818.862.862 0 00-.157-.247l-.135-.075zm-73.057 34.68a.75.75 0 00.525-.225.75.75 0 00.225-.525.749.749 0 00-.225-.532.75.75 0 00-1.058 0 .91.91 0 00-.165.24.805.805 0 000 .577.75.75 0 00.165.24.75.75 0 00.533.225zm15.808-58.238a.89.89 0 00-.247.165.749.749 0 101.223.818.751.751 0 00-.975-.982zm-9.689-2.009l-.397.045a.751.751 0 10.09 1.5h.09l.405-.053a23.36 23.36 0 013.232-.27.751.751 0 10.113-1.5 23.739 23.739 0 00-3.533.278z" fill="#00BBE4"/></svg>