<svg width="169" height="30" fill="none" xmlns="http://www.w3.org/2000/svg"><path fill-rule="evenodd" clip-rule="evenodd" d="M10.644 11.183c1.145-1.72.908-2.507-.133-2.507H5.88v12.12h4.631c1.079 0 1.006-.768.361-2.102v-.002l-2.077-3.596a.674.674 0 01-.103-.336.676.676 0 01.103-.337l1.847-3.2.002-.04zm53.425 14.615h5.12c.889 0 2.037-.728 2.55-1.618L81.771 6.805v18.931h5.888V3.722h-5.716c-3.067 0-5.341.395-6.48 2.367L64.069 25.798zm-25.592 0h5.12c.889 0 2.037-.728 2.55-1.618L56.18 6.805v18.931h5.888V3.722H56.35c-3.067 0-5.341.395-6.48 2.367L38.477 25.798zM2.824 3.715h.054l11.394.012a2.989 2.989 0 013.006 2.95l.034 2.324c.01.751-.126 1.134-.485 1.756l-2.123 3.68a.786.786 0 00-.12.392.781.781 0 00.12.392l2.041 3.536c.408.708.533 1.066.533 1.913v2.172c0 1.65-1.356 2.95-3.006 2.951l-11.448.012.005-.012L0 25.805V3.727l2.824-.012z" fill="#8DBF30"/><path fill-rule="evenodd" clip-rule="evenodd" d="M23.424 10a4.761 4.761 0 014.76 4.76 4.761 4.761 0 01-9.52 0 4.76 4.76 0 014.76-4.76zm.131 19.152h6.655c1.156 0 2.649-.946 3.316-2.103l6.489-11.236c.22-.383.323-.743.323-1.053 0-.31-.103-.67-.323-1.053L33.526 2.472C32.86 1.314 31.366.369 30.21.369h-6.655l8.31 14.391-8.31 14.392zM168.998 3.72h-5.905v.026c-2.412.122-3.811.786-4.747 2.405l-3.169 5.473-3.169-5.473c-.94-1.628-2.351-2.292-4.79-2.407V3.72h-5.905V25.8h5.905V9.497l2.584 4.475c.513.89 1.663 1.618 2.551 1.618h5.649c.889 0 2.037-.728 2.55-1.618l2.541-4.397v16.223h5.905V3.721zM113.83 25.83h-5.121c-.89 0-2.037-.727-2.55-1.617l-4.99-8.644c-.17-.293-.25-.57-.249-.808-.001-.239.079-.517.249-.81l4.99-8.644c.513-.89 1.66-1.617 2.55-1.617h5.121l-6.392 11.07 6.392 11.07zM100.239 3.721h-5.906V25.8h5.906V3.72zM125.775 2.6c6.717 0 12.161 5.446 12.161 12.161 0 6.714-5.444 12.162-12.161 12.162-6.715 0-12.16-5.448-12.16-12.162 0-6.715 5.445-12.161 12.16-12.161zm0 5.382a6.78 6.78 0 016.78 6.78 6.78 6.78 0 01-13.559 0 6.78 6.78 0 016.779-6.78z" fill="#00A2DE"/></svg>