<svg width="23" height="23" fill="none" xmlns="http://www.w3.org/2000/svg"><g clip-path="url(#clip0_2257_7943)"><path d="M11.5 0C6.745 0 2.875 3.897 2.875 8.687c0 6.807 7.814 13.836 8.147 14.13a.718.718 0 00.956.002c.333-.296 8.147-7.325 8.147-14.132C20.125 3.897 16.255 0 11.5 0zm0 13.417a4.797 4.797 0 01-4.792-4.792A4.797 4.797 0 0111.5 3.833a4.797 4.797 0 014.792 4.792 4.797 4.797 0 01-4.792 4.792z" fill="#00BBE4"/></g><defs><clipPath id="clip0_2257_7943"><path fill="#fff" d="M0 0h23v23H0z"/></clipPath></defs></svg>