<svg width="36" height="36" fill="none" xmlns="http://www.w3.org/2000/svg"><path d="M10 0C4.477 0 0 4.477 0 10v16c0 5.523 4.477 10 10 10h16c5.523 0 10-4.477 10-10V10c0-5.523-4.477-10-10-10H10z" fill="url(#paint0_linear_2329_279)"/><path d="M36 26v-9.304L15.172 36H26c5.523 0 10-4.477 10-10z" fill="url(#paint1_linear_2329_279)"/><path d="M.257 26V15.913L21.086 36H10.257c-5.522 0-10-4.477-10-10z" fill="url(#paint2_linear_2329_279)"/><defs><linearGradient id="paint0_linear_2329_279" x1="25.2" y1="-54.782" x2="17.793" y2="4.148" gradientUnits="userSpaceOnUse"><stop stop-color="#239D45"/><stop offset="1" stop-color="#4DAE45"/></linearGradient><linearGradient id="paint1_linear_2329_279" x1="13.372" y1="33.391" x2="36.225" y2="17.009" gradientUnits="userSpaceOnUse"><stop stop-color="#69B641"/><stop offset="1" stop-color="#73B336"/></linearGradient><linearGradient id="paint2_linear_2329_279" x1="22.886" y1="33.392" x2=".033" y2="17.009" gradientUnits="userSpaceOnUse"><stop stop-color="#BCCE2C"/><stop offset="1" stop-color="#73B336"/></linearGradient></defs></svg>