<svg width="26" height="26" fill="none" xmlns="http://www.w3.org/2000/svg"><path d="M18.571 4.643H2.786A2.786 2.786 0 000 7.429v15.785A2.786 2.786 0 002.786 26H18.57a2.786 2.786 0 002.786-2.786V7.43a2.786 2.786 0 00-2.786-2.786zm.929 18.571a.929.929 0 01-.929.929H2.786a.929.929 0 01-.929-.929V7.43a.93.93 0 01.929-.929H18.57a.93.93 0 01.929.929v15.785z" fill="#00BBE4"/><path d="M23.215 0H6.5a2.786 2.786 0 00-2.786 2.786.929.929 0 101.857 0 .93.93 0 01.929-.929h16.714c.513 0 .928.416.928.929V19.5a.929.929 0 01-.928.929.929.929 0 000 1.857A2.786 2.786 0 0026 19.5V2.786A2.786 2.786 0 0023.215 0z" fill="#00BBE4"/></svg>