<svg width="26" height="26" fill="none" xmlns="http://www.w3.org/2000/svg"><g clip-path="url(#clip0_2258_8960)"><path d="M22.393 4.001a12.98 12.98 0 00-9.397-4C5.828-.01.01 5.796 0 12.964a12.98 12.98 0 004 9.39c.008.007.01.018.018.024.075.073.157.134.233.204.209.185.418.377.638.557.118.092.24.185.36.27.209.156.417.31.634.454.148.093.3.185.451.278.2.12.4.242.607.353.176.093.355.172.533.257.195.093.387.186.587.27.2.083.4.148.602.22.202.072.377.14.57.199.22.066.445.117.667.171.186.046.366.098.557.135.257.051.516.084.776.119.161.022.318.054.48.07.426.041.854.065 1.287.065.432 0 .861-.024 1.287-.066.162-.015.319-.047.48-.07.26-.034.52-.067.775-.118.186-.037.372-.093.557-.135.223-.054.448-.105.667-.171.194-.06.381-.132.57-.199.19-.067.405-.14.603-.22.198-.083.392-.178.587-.27.178-.085.357-.164.533-.257.207-.11.406-.232.607-.353.151-.093.303-.177.45-.278.218-.143.426-.298.634-.453.12-.093.243-.177.361-.271a12.4 12.4 0 00.638-.557c.076-.07.158-.131.233-.204.007-.006.01-.017.017-.025 5.177-4.959 5.353-13.176.394-18.352zm-2.087 17.38a10.662 10.662 0 01-.834.661 10.359 10.359 0 01-.898.582c-.163.093-.33.186-.497.279a12.889 12.889 0 01-.937.43 9.441 9.441 0 01-.51.185c-.157.054-.314.11-.473.157-.186.056-.38.101-.572.148-.15.035-.299.075-.45.105-.22.042-.446.072-.671.103-.128.016-.255.04-.385.053-.356.034-.717.054-1.082.054-.365 0-.726-.02-1.082-.054-.13-.013-.256-.037-.384-.053-.226-.031-.45-.06-.67-.103-.153-.03-.302-.07-.452-.105a12.816 12.816 0 01-.572-.148c-.158-.047-.315-.103-.472-.157-.172-.06-.344-.12-.51-.185a9.57 9.57 0 01-.485-.212 8.518 8.518 0 01-.95-.497 11.603 11.603 0 01-.898-.582 10.92 10.92 0 01-.834-.66c-.04-.031-.078-.07-.118-.106a7.448 7.448 0 015.062-6.957 5.504 5.504 0 004.729 0 7.448 7.448 0 015.061 6.957c-.039.036-.076.071-.116.105zM9.76 7.443a3.713 3.713 0 115.057 5.057c-.005 0-.01 0-.016.005a3.933 3.933 0 01-.776.329c-.048.014-.093.032-.144.044-.093.024-.19.041-.286.058a3.76 3.76 0 01-.545.055h-.106a3.76 3.76 0 01-.545-.055c-.092-.017-.19-.034-.285-.058-.05-.012-.093-.03-.144-.044a3.924 3.924 0 01-.776-.329l-.017-.005A3.713 3.713 0 019.76 7.443zm12.31 11.993a9.329 9.329 0 00-4.97-6.399 5.57 5.57 0 10-8.206 0 9.329 9.329 0 00-4.97 6.399C.363 14.422 1.543 7.472 6.557 3.912 11.57.352 18.52 1.532 22.08 6.545a11.134 11.134 0 012.056 6.451c0 2.31-.723 4.561-2.067 6.44z" fill="#00BBE4"/></g><defs><clipPath id="clip0_2258_8960"><path fill="#fff" d="M0 0h26v26H0z"/></clipPath></defs></svg>