<svg width="26" height="26" fill="none" xmlns="http://www.w3.org/2000/svg"><path d="M13 0C7.187 0 3.716 3.818 3.716 10.214c0 6.978 8.283 15.175 8.636 15.52a.928.928 0 001.3 0c.352-.345 8.635-8.542 8.635-15.52C22.286 3.818 18.816 0 13.001 0zm0 23.735c-1.92-2.048-7.428-8.37-7.428-13.52 0-5.386 2.638-8.358 7.429-8.358 4.79 0 7.428 2.972 7.428 8.357 0 5.143-5.509 11.472-7.428 13.521z" fill="#00BBE4"/><path d="M12.998 3.714a4.643 4.643 0 100 9.286 4.643 4.643 0 000-9.286zm0 7.429a2.786 2.786 0 110-5.571 2.786 2.786 0 010 5.57z" fill="#00BBE4"/></svg>