<svg width="26" height="26" fill="none" xmlns="http://www.w3.org/2000/svg"><path d="M23.343 4.21L13.389.078a1.015 1.015 0 00-.778 0L2.657 4.21a1.016 1.016 0 00-.626.938v5.024a17.009 17.009 0 0010.585 15.753c.246.1.522.1.768 0a17.008 17.008 0 0010.585-15.753V5.148c0-.41-.247-.78-.626-.938zm-1.405 5.962A14.98 14.98 0 0113 23.882a14.981 14.981 0 01-8.938-13.71V5.826L13 2.116l8.938 3.71v4.346zm-10.06 3.423l4.365-4.365a1.016 1.016 0 111.436 1.436l-5.083 5.083a1.016 1.016 0 01-1.437 0l-2.838-2.838a1.016 1.016 0 111.436-1.436l2.12 2.12z" fill="#00BBE4"/></svg>