<svg width="26" height="26" fill="none" xmlns="http://www.w3.org/2000/svg"><g clip-path="url(#clip0_2258_8919)"><path d="M21.078 12.704a6.488 6.488 0 00-8.073-10.129A6.49 6.49 0 004.92 12.704 9.222 9.222 0 000 20.899v2.785c0 .513.415.929.928.929H25.07a.929.929 0 00.929-.929V20.9a9.222 9.222 0 00-4.922-8.195zm-4.364-9.448a4.636 4.636 0 011.908 8.864c-.071.033-.143.062-.215.093-.23.092-.465.166-.707.22-.046.01-.092.016-.14.025-.27.052-.543.08-.817.083a4.61 4.61 0 01-.371-.02c-.047 0-.093 0-.14-.01a4.692 4.692 0 01-1.518-.448c-.018-.008-.038-.007-.056-.014-.092-.045-.185-.084-.268-.134.008-.01.012-.02.02-.029a6.515 6.515 0 00.994-1.812l.029-.078c.106-.312.188-.63.246-.955l.022-.144a6.52 6.52 0 00.085-.998 6.522 6.522 0 00-.085-.997l-.022-.144a6.544 6.544 0 00-.246-.955l-.029-.078a6.517 6.517 0 00-.995-1.812l-.019-.029a4.613 4.613 0 012.324-.628zM4.643 7.899a4.63 4.63 0 017.995-3.196c.16.167.306.345.44.534.04.057.078.118.116.178.13.2.244.41.34.627.024.053.042.106.062.16.098.24.175.488.23.742.007.028.009.056.014.085a4.369 4.369 0 010 1.747c-.005.029-.007.057-.014.085a4.528 4.528 0 01-.23.742c-.02.053-.038.107-.061.16a4.589 4.589 0 01-.34.626c-.039.06-.076.12-.117.178a4.766 4.766 0 01-.599.692c-.376.358-.81.65-1.282.865a2.711 2.711 0 01-.229.093 4.58 4.58 0 01-.689.214c-.058.013-.118.02-.178.03a4.612 4.612 0 01-.764.078h-.102a4.6 4.6 0 01-.764-.077c-.06-.01-.12-.018-.179-.031a4.672 4.672 0 01-.689-.214c-.077-.03-.153-.062-.228-.093A4.642 4.642 0 014.643 7.9zm12.071 14.857H1.857v-1.857A7.382 7.382 0 016.795 13.9a6.48 6.48 0 004.981 0c.31.113.612.247.905.4.193.1.371.213.557.327.12.075.243.149.36.231.178.127.347.266.513.408a6.967 6.967 0 01.748.734 7.38 7.38 0 01.891 1.256c.093.16.179.32.257.485.078.167.146.349.213.526.059.154.12.308.17.464.064.216.11.439.155.662.028.131.064.26.085.394.055.368.083.739.084 1.11v1.858zm7.429 0H18.57v-1.857a9.5 9.5 0 00-.042-.864c-.008-.083-.02-.166-.03-.25a8.878 8.878 0 00-.146-.869 9.118 9.118 0 00-.155-.614c-.02-.067-.037-.135-.058-.201a9.201 9.201 0 00-1.118-2.347l-.037-.053a9.196 9.196 0 00-.511-.688l-.007-.008a8.422 8.422 0 00-.599-.666h.038c.262.035.526.053.79.056h.052c.244-.002.489-.018.732-.047.076-.01.15-.024.227-.036a6.8 6.8 0 00.585-.117c.055-.014.11-.027.166-.043.253-.069.5-.153.743-.253a7.382 7.382 0 014.942 7v1.857z" fill="#00BBE4"/></g><defs><clipPath id="clip0_2258_8919"><path fill="#fff" d="M0 0h26v26H0z"/></clipPath></defs></svg>