<svg width="26" height="26" fill="none" xmlns="http://www.w3.org/2000/svg"><g clip-path="url(#clip0_2258_8875)" fill="#00BBE4"><path d="M25.56 6.638a.929.929 0 00-.904-.04L18.571 9.64V7.43a2.786 2.786 0 00-2.785-2.786h-13A2.786 2.786 0 000 7.429V18.57a2.786 2.786 0 002.786 2.786h13a2.786 2.786 0 002.785-2.786v-2.21l6.085 3.048A.929.929 0 0026 18.571V7.43a.928.928 0 00-.44-.79zm-8.846 11.933a.929.929 0 01-.928.929h-13a.929.929 0 01-.929-.929V7.43a.93.93 0 01.929-.929h13c.513 0 .928.416.928.929v11.14zm7.429-1.502l-5.572-2.786v-2.566l5.572-2.786v8.138z"/><path d="M9.285 9.286a3.714 3.714 0 100 7.428 3.714 3.714 0 000-7.428zm0 5.571a1.857 1.857 0 110-3.714 1.857 1.857 0 010 3.714z"/></g><defs><clipPath id="clip0_2258_8875"><path fill="#fff" d="M0 0h26v26H0z"/></clipPath></defs></svg>