<svg width="23" height="23" fill="none" xmlns="http://www.w3.org/2000/svg"><path d="M9.3 21.535a.902.902 0 01-.138-.01A10.827 10.827 0 010 10.826c0-2.892 1.126-5.61 3.17-7.655A10.755 10.755 0 0110.827 0c2.635 0 5.174.958 7.15 2.697a10.816 10.816 0 013.577 6.66.898.898 0 01-1.78.242c-.604-4.448-4.45-7.802-8.947-7.802-4.979 0-9.03 4.05-9.03 9.03 0 4.414 3.285 8.25 7.64 8.922a.898.898 0 01-.136 1.787zm-1.16-6.709l3.325-3.369a.898.898 0 00.259-.63V4.132a.898.898 0 10-1.797 0v6.324l-3.066 3.107a.898.898 0 101.28 1.262zm14.844 3.216a.898.898 0 00-1.767-.326 4.265 4.265 0 01-4.197 3.487 4.272 4.272 0 01-4.267-4.268 4.272 4.272 0 015.418-4.11.898.898 0 10.484-1.731 6.071 6.071 0 00-7.699 5.841A6.071 6.071 0 0017.02 23a6.062 6.062 0 005.964-4.958zm-4.855.453l3.926-3.886a.898.898 0 00-1.264-1.277l-3.767 3.729-1.165-1.165a.898.898 0 10-1.27 1.27l1.322 1.323a1.57 1.57 0 002.218.006z" fill="#00BBE4"/></svg>