<svg width="70" height="70" fill="none" xmlns="http://www.w3.org/2000/svg"><path d="M19.994 45.634l-7.041-7.04a7.25 7.25 0 00-5.157-2.136H2.92a1.459 1.459 0 000 2.917h4.877c1.15 0 2.278.467 3.092 1.28l4.552 4.553H2.92a1.459 1.459 0 000 2.917h16.04a1.461 1.461 0 001.034-2.49zM18.956 52.5a1.46 1.46 0 00-1.459 1.458v4.375a1.46 1.46 0 01-1.458 1.459H7.29a1.46 1.46 0 01-1.458-1.459V52.5a1.459 1.459 0 00-2.917 0v5.833a4.38 4.38 0 004.375 4.375h8.75a4.38 4.38 0 004.375-4.375v-4.375c0-.805-.653-1.458-1.458-1.458z" fill="#8DBF30"/><path d="M63.382 27.875c-4.019-2.103-13.04-3.083-28.382-3.083-15.342 0-24.363.98-28.382 3.083C2.038 30.266 0 34.262 0 40.833c0 6.318 1.447 11.813 1.508 12.043a1.454 1.454 0 001.409 1.082h12.78l5.525 2.763c.204.102.428.154.653.154h26.25c.225 0 .45-.052.65-.154l5.528-2.763h12.78c.663 0 1.24-.443 1.41-1.082.06-.23 1.507-5.725 1.507-12.043 0-6.57-2.039-10.567-6.618-12.958zm2.55 23.167h-11.97c-.228 0-.453.052-.654.154l-5.527 2.762H22.219l-5.524-2.762a1.463 1.463 0 00-.653-.154H4.072c-.406-1.858-1.155-5.872-1.155-10.209 0-5.492 1.464-8.499 5.048-10.374 3.495-1.826 12.589-2.75 27.035-2.75s23.54.924 27.035 2.75c3.584 1.875 5.048 4.882 5.048 10.374 0 4.337-.75 8.35-1.152 10.209z" fill="#8DBF30"/><path d="M67.085 45.208H54.564l4.55-4.552a4.413 4.413 0 013.095-1.28h4.876a1.459 1.459 0 000-2.918H62.21a7.25 7.25 0 00-5.157 2.135l-7.04 7.041a1.458 1.458 0 001.032 2.49h16.041a1.459 1.459 0 000-2.916zm-14.722-7.91a1.46 1.46 0 00-1.32-.84H18.958a1.46 1.46 0 00-1.321.84c-.24.51-.164 1.117.2 1.552l7.293 8.75a1.46 1.46 0 001.12.525h17.5a1.46 1.46 0 001.12-.525l7.291-8.75c.365-.435.44-1.041.201-1.552zm-9.298 7.91H26.933l-4.862-5.833h25.856l-4.862 5.833zM64.05 28.586c-1.66-3.815-7.213-16.388-9.144-18.03-2.407-2.045-9.299-3.264-18.445-3.264h-2.917c-9.146 0-16.039 1.219-18.445 3.26-1.93 1.643-7.487 14.216-9.144 18.031-.317.741.02 1.599.759 1.92a1.458 1.458 0 001.919-.756c3.293-7.58 7.32-16.004 8.356-16.969 1.123-.954 5.874-2.57 16.555-2.57h2.917c10.68 0 15.432 1.616 16.549 2.564 1.041.971 5.069 9.392 8.362 16.975a1.46 1.46 0 002.677-1.16zm1.578 22.456a1.46 1.46 0 00-1.459 1.458v5.833a1.46 1.46 0 01-1.458 1.459h-8.75a1.46 1.46 0 01-1.458-1.459v-4.375a1.459 1.459 0 00-2.917 0v4.375a4.38 4.38 0 004.375 4.375h8.75a4.38 4.38 0 004.375-4.375V52.5c0-.805-.653-1.458-1.458-1.458z" fill="#8DBF30"/></svg>