<svg width="70" height="70" fill="none" xmlns="http://www.w3.org/2000/svg"><path d="M56.878 0h-43.75C9.105 0 5.836 3.272 5.836 7.292v49.583c0 4.02 3.27 7.292 7.292 7.292h43.75c4.022 0 7.291-3.273 7.291-7.292V7.292C64.17 3.272 60.9 0 56.878 0zm4.375 56.875a4.38 4.38 0 01-4.375 4.375h-43.75a4.38 4.38 0 01-4.375-4.375V7.292a4.38 4.38 0 014.375-4.375h43.75a4.38 4.38 0 014.375 4.375v49.583z" fill="#8DBF30"/><path d="M7.292 32.083H4.375a1.46 1.46 0 01-1.458-1.458v-2.917a4.38 4.38 0 014.375-4.375 1.459 1.459 0 000-2.916C3.27 20.417 0 23.689 0 27.708v2.917A4.38 4.38 0 004.375 35h2.917a1.459 1.459 0 000-2.917zm55.416-11.666a1.459 1.459 0 000 2.916 4.38 4.38 0 014.375 4.375v2.917a1.46 1.46 0 01-1.458 1.458h-2.917a1.459 1.459 0 000 2.917h2.917A4.38 4.38 0 0070 30.625v-2.917c0-4.019-3.27-7.291-7.292-7.291zM18.96 46.667a4.38 4.38 0 00-4.374 4.375 4.38 4.38 0 004.375 4.375 4.38 4.38 0 004.375-4.375 4.38 4.38 0 00-4.375-4.375zm0 5.833a1.46 1.46 0 01-1.457-1.458 1.46 1.46 0 011.458-1.459 1.46 1.46 0 011.458 1.459 1.46 1.46 0 01-1.458 1.458zm32.08-5.833a4.38 4.38 0 00-4.376 4.375 4.38 4.38 0 004.375 4.375 4.38 4.38 0 004.375-4.375 4.38 4.38 0 00-4.375-4.375zm0 5.833a1.46 1.46 0 01-1.46-1.458 1.46 1.46 0 011.46-1.459 1.46 1.46 0 011.457 1.459A1.46 1.46 0 0151.04 52.5zm-26.25 8.75c-.806 0-1.459.653-1.459 1.458v2.917a1.46 1.46 0 01-1.458 1.458h-5.834a1.46 1.46 0 01-1.458-1.458v-2.917a1.459 1.459 0 00-2.917 0v2.917A4.38 4.38 0 0016.04 70h5.834a4.38 4.38 0 004.375-4.375v-2.917a1.46 1.46 0 00-1.459-1.458zm32.085 0c-.805 0-1.458.653-1.458 1.458v2.917a1.46 1.46 0 01-1.459 1.458h-5.833a1.46 1.46 0 01-1.458-1.458v-2.917a1.459 1.459 0 00-2.917 0v2.917A4.38 4.38 0 0048.125 70h5.833a4.38 4.38 0 004.375-4.375v-2.917c0-.805-.653-1.458-1.458-1.458zM51.044 5.833H18.961a4.38 4.38 0 00-4.375 4.375 4.38 4.38 0 004.375 4.375h32.083a4.38 4.38 0 004.375-4.375 4.38 4.38 0 00-4.375-4.375zm0 5.834H18.961a1.46 1.46 0 01-1.458-1.459A1.46 1.46 0 0118.96 8.75h32.083a1.46 1.46 0 011.459 1.458 1.46 1.46 0 01-1.459 1.459zm2.912 5.833H16.039a4.38 4.38 0 00-4.375 4.375v14.583a4.38 4.38 0 004.375 4.375h37.917a4.38 4.38 0 004.375-4.375V21.875a4.38 4.38 0 00-4.375-4.375zm1.458 18.958a1.46 1.46 0 01-1.458 1.459H16.039a1.46 1.46 0 01-1.458-1.459V21.875a1.46 1.46 0 011.458-1.458h37.917a1.46 1.46 0 011.458 1.458v14.583z" fill="#8DBF30"/></svg>