<svg width="37" height="37" fill="none" xmlns="http://www.w3.org/2000/svg"><path d="M18.5 18.548C8.75 18.548.816 26.48.816 36.23a.77.77 0 001.538 0c0-8.903 7.243-16.146 16.146-16.146s16.146 7.243 16.146 16.146a.77.77 0 001.537 0c0-9.752-7.933-17.683-17.683-17.683zM18.5 0c-4.662 0-8.457 3.793-8.457 8.457 0 4.664 3.795 8.458 8.457 8.458 4.663 0 8.457-3.794 8.457-8.458S23.163 0 18.5 0zm0 15.377a6.928 6.928 0 01-6.92-6.92 6.928 6.928 0 016.92-6.92 6.928 6.928 0 016.92 6.92 6.928 6.928 0 01-6.92 6.92z" fill="#000"/></svg>