<svg width="51" height="51" fill="none" xmlns="http://www.w3.org/2000/svg"><g clip-path="url(#clip0_2255_6990)" fill="#323E43"><path d="M25.5 8.87c-4.28 0-7.762 3.48-7.762 7.76 0 4.28 3.482 7.761 7.761 7.761 4.28 0 7.761-3.48 7.761-7.76 0-4.28-3.481-7.761-7.76-7.761zm0 13.304a5.551 5.551 0 01-5.544-5.543 5.551 5.551 0 015.543-5.544 5.551 5.551 0 015.544 5.544 5.551 5.551 0 01-5.544 5.543zm15.52-4.434a5.551 5.551 0 00-5.543 5.543 5.551 5.551 0 005.543 5.543 5.551 5.551 0 005.543-5.543 5.551 5.551 0 00-5.543-5.544zm0 8.869a3.33 3.33 0 01-3.326-3.326 3.33 3.33 0 013.326-3.326 3.33 3.33 0 013.326 3.326 3.33 3.33 0 01-3.326 3.326zM10.137 17.74a5.55 5.55 0 00-5.543 5.543 5.551 5.551 0 005.543 5.543 5.551 5.551 0 005.544-5.543 5.55 5.55 0 00-5.544-5.544zm0 8.869a3.33 3.33 0 01-3.326-3.326 3.33 3.33 0 013.326-3.326 3.33 3.33 0 013.326 3.326 3.33 3.33 0 01-3.326 3.326zm15.362 0c-7.947 0-14.413 6.465-14.413 14.413a1.11 1.11 0 002.217 0c0-6.726 5.47-12.196 12.196-12.196 6.725 0 12.196 5.47 12.196 12.196a1.11 1.11 0 002.217 0c0-7.947-6.466-14.413-14.413-14.413z"/><path d="M41.022 31.044a9.98 9.98 0 00-5.169 1.44c-.521.32-.69 1-.372 1.524.321.523 1 .69 1.523.373a7.73 7.73 0 014.018-1.12c4.28 0 7.76 3.481 7.76 7.76a1.11 1.11 0 002.218 0c0-5.5-4.477-9.977-9.978-9.977zm-25.877 1.439a9.985 9.985 0 00-5.167-1.44C4.477 31.044 0 35.52 0 41.023a1.11 1.11 0 002.217 0c0-4.28 3.482-7.761 7.761-7.761 1.422 0 2.81.386 4.016 1.117a1.108 1.108 0 101.15-1.896z"/></g><defs><clipPath id="clip0_2255_6990"><path fill="#fff" d="M0 0h51v51H0z"/></clipPath></defs></svg>