<svg width="23" height="23" fill="none" xmlns="http://www.w3.org/2000/svg"><g clip-path="url(#clip0_2257_7954)" fill="#00BBE4"><path d="M16.777 13.71l-.009.073c-2.107-1.05-2.328-1.19-2.6-.782-.189.282-.739.924-.905 1.113-.167.187-.334.201-.619.072-.287-.144-1.21-.445-2.303-1.423-.85-.762-1.422-1.696-1.59-1.984-.281-.485.306-.554.841-1.566.096-.2.047-.359-.024-.502-.072-.144-.644-1.552-.883-2.114-.23-.56-.467-.489-.644-.489-.552-.048-.956-.04-1.311.33-1.547 1.7-1.157 3.454.166 5.319 2.601 3.404 3.987 4.03 6.52 4.9.685.218 1.309.188 1.802.117.55-.088 1.694-.691 1.932-1.367.245-.675.245-1.236.173-1.366-.071-.129-.259-.2-.546-.33z"/><path d="M19.665 3.305C12.296-3.818.102 1.348.097 11.397c0 2.009.526 3.968 1.528 5.698L0 23l6.071-1.583C13.647 25.509 22.996 20.075 23 11.403c0-3.044-1.188-5.908-3.35-8.06l.015-.038zm1.42 8.066c-.006 7.315-8.035 11.884-14.386 8.15l-.345-.205-3.594.934.963-3.493-.229-.359c-3.952-6.291.588-14.514 8.075-14.514 2.543 0 4.93.992 6.728 2.789a9.38 9.38 0 012.788 6.698z"/></g><defs><clipPath id="clip0_2257_7954"><path fill="#fff" d="M0 0h23v23H0z"/></clipPath></defs></svg>