<svg width="666" height="358" viewBox="0 0 666 358" fill="none" xmlns="http://www.w3.org/2000/svg">
<g filter="url(#filter0_d_2257_8397)">
<path d="M224.555 189.308V227.527H196.448V281H148.631V227.527H50.2549V184.852L141.604 34.0317H196.448V189.308H224.555ZM86.4175 189.308H148.631V82.02L86.4175 189.308ZM333.043 287.17C301.394 287.17 279.17 276.087 266.374 253.921C253.691 231.755 247.35 200.163 247.35 159.144C247.35 118.125 253.691 86.4761 266.374 64.1958C279.17 41.9155 301.394 30.7754 333.043 30.7754C364.692 30.7754 386.916 41.9155 399.712 64.1958C412.395 86.4761 418.736 118.125 418.736 159.144C418.736 200.163 412.338 231.755 399.541 253.921C386.858 276.087 364.692 287.17 333.043 287.17ZM361.665 224.614C366.121 209.532 368.349 187.708 368.349 159.144C368.349 129.208 366.063 107.042 361.493 92.646C357.037 78.2495 347.554 71.0513 333.043 71.0513C318.532 71.0513 308.935 78.2495 304.25 92.646C299.565 107.042 297.223 129.208 297.223 159.144C297.223 187.708 299.565 209.589 304.25 224.785C308.935 239.867 318.532 247.408 333.043 247.408C347.554 247.408 357.094 239.81 361.665 224.614ZM615.317 189.308V227.527H587.209V281H539.393V227.527H441.017V184.852L532.366 34.0317H587.209V189.308H615.317ZM477.179 189.308H539.393V82.02L477.179 189.308Z" fill="url(#paint0_linear_2257_8397)"/>
</g>
<defs>
<filter id="filter0_d_2257_8397" x="0.257812" y="0.775391" width="665.062" height="356.395" filterUnits="userSpaceOnUse" color-interpolation-filters="sRGB">
<feFlood flood-opacity="0" result="BackgroundImageFix"/>
<feColorMatrix in="SourceAlpha" type="matrix" values="0 0 0 0 0 0 0 0 0 0 0 0 0 0 0 0 0 0 127 0" result="hardAlpha"/>
<feOffset dy="20"/>
<feGaussianBlur stdDeviation="25"/>
<feColorMatrix type="matrix" values="0 0 0 0 0.392157 0 0 0 0 0.831373 0 0 0 0 0.858824 0 0 0 0.25 0"/>
<feBlend mode="normal" in2="BackgroundImageFix" result="effect1_dropShadow_2257_8397"/>
<feBlend mode="normal" in="SourceGraphic" in2="effect1_dropShadow_2257_8397" result="shape"/>
</filter>
<linearGradient id="paint0_linear_2257_8397" x1="425.065" y1="267.6" x2="678.224" y2="200.398" gradientUnits="userSpaceOnUse">
<stop stop-color="#00BBE4"/>
<stop offset="1" stop-color="#A2D537"/>
</linearGradient>
</defs>
</svg>
