<svg width="56" height="76" viewBox="0 0 56 76" fill="none" xmlns="http://www.w3.org/2000/svg">
<path fill-rule="evenodd" clip-rule="evenodd" d="M12.2975 50.5693C19.0899 50.5693 24.5992 44.9412 24.5992 38.0006C24.5992 31.06 19.0899 25.4318 12.2975 25.4318C5.5092 25.4318 0 31.06 0 38.0006C0 44.9412 5.5092 50.5693 12.2975 50.5693ZM12.6375 0H29.8329C32.8183 0 36.6751 2.4973 38.4002 5.55154L55.164 35.2205C55.7339 36.2311 56 37.1812 56 38.0006C56 38.8178 55.7339 39.7688 55.164 40.7805L38.4002 70.4484C36.6751 73.5048 32.8183 76 29.8329 76H12.6375L34.1057 38.0006L12.6375 0Z" fill="#37C1F4"/>
</svg>
