<svg width="29" height="29" viewBox="0 0 29 29" fill="none" xmlns="http://www.w3.org/2000/svg">
<path d="M20.0187 15.1211H20.8557C21.8122 15.1211 22.3499 14.7138 22.4671 13.8966L22.5315 13.3815C22.6498 12.5549 22.2316 12.141 21.2746 12.141H19.1646L18.7617 15.0083C18.9763 15.0523 19.1805 15.0815 19.3737 15.0974C19.5674 15.1128 19.7826 15.1211 20.0187 15.1211Z" fill="#F04D44"/>
<path d="M28.9448 14.4714C28.9448 6.4789 22.4657 -0.000169754 14.4727 -0.000169754C12.9235 -0.000169754 11.4348 0.249132 10.0348 0.699306L8.39314 11.6944C8.37883 11.7935 8.34746 11.8848 8.30894 11.9729L7.67551 16.523C7.64304 16.7696 7.61222 17.0167 7.58635 17.2638C7.55883 17.5109 7.54012 17.7503 7.52967 17.9803C7.51866 18.212 7.52416 18.4239 7.54563 18.6171C7.56764 18.8113 7.60506 18.9775 7.65844 19.1168C7.80924 19.289 8.01946 19.4178 8.28748 19.5036C8.55604 19.5895 8.84606 19.6335 9.15755 19.6335C9.57636 19.6335 9.97865 19.5543 10.3655 19.3991C10.7524 19.2439 11.0149 19.0149 11.1547 18.715C11.2301 18.5527 11.2923 18.3358 11.3407 18.0612C11.3886 17.7877 11.4508 17.4036 11.5262 16.9094L12.3632 10.8519C12.4062 10.5833 12.4541 10.3769 12.5085 10.2305C12.5614 10.0858 12.6406 9.98122 12.743 9.91684C12.8437 9.85245 12.9752 9.81557 13.1365 9.80402C13.2983 9.79301 13.5068 9.78806 13.7649 9.78806C14.066 9.78806 14.3021 9.79081 14.4743 9.79631C14.6466 9.80182 14.7699 9.83594 14.8453 9.90088C14.9201 9.96527 14.9575 10.0704 14.9575 10.2157C14.9575 10.3599 14.9361 10.5723 14.8942 10.8519L14.0555 16.9094C14.0126 17.1999 13.9675 17.5032 13.9185 17.8202C13.8701 18.1366 13.8029 18.4239 13.7176 18.6825C13.5564 19.1756 13.3247 19.6264 13.0247 20.0358C12.7232 20.4442 12.3632 20.792 11.9439 21.0825C11.5262 21.3731 11.0551 21.596 10.535 21.7512C10.0133 21.9069 9.45804 21.9801 8.86753 21.9691C7.61992 21.9581 6.66014 21.6747 5.98323 21.1161C5.30687 20.557 4.95686 19.7458 4.93539 18.6825C4.93539 18.4239 4.94915 18.1443 4.97502 17.8444C5.00308 17.5428 5.04271 17.2374 5.09719 16.9264L5.9337 10.8519C5.96232 10.6774 5.99313 10.5387 6.02615 10.4165L7.29577 1.91554C2.94098 4.41075 0 9.09354 0 14.4714C0 22.3687 6.32829 28.7762 14.1893 28.9292L15.7241 18.6501L16.6812 11.7698C16.4654 11.684 16.3003 11.5794 16.182 11.4561C16.0637 11.3323 15.9943 11.2052 15.9718 11.0769L16.0692 10.2872C16.0907 10.137 16.1583 10.0164 16.2712 9.92454C16.384 9.83373 16.515 9.78806 16.6652 9.78806H21.7255C23.0667 9.78806 24.0182 10.0759 24.5768 10.6499C25.1348 11.225 25.3286 12.0978 25.1563 13.2678L25.0435 14.1225C24.8817 15.2496 24.442 16.0932 23.7227 16.6518C23.0023 17.211 21.9765 17.49 20.6447 17.49H20.3073C19.812 17.468 19.4152 17.4548 19.1147 17.4487C18.8137 17.4432 18.6095 17.4311 18.5022 17.4091H18.4703V17.3931L16.7753 28.7437C23.6704 27.6381 28.9448 21.6791 28.9448 14.4714Z" fill="#F04D44"/>
<path d="M14.9577 10.2152C14.9577 10.0699 14.9203 9.96477 14.8454 9.90093C14.77 9.83599 14.6468 9.80132 14.4745 9.79582C14.3023 9.79087 14.0662 9.78811 13.7651 9.78811C13.507 9.78811 13.2984 9.79252 13.1366 9.80352C12.9754 9.81508 12.8439 9.8525 12.7432 9.91634C12.6408 9.98073 12.5615 10.0858 12.5087 10.23C12.4542 10.3764 12.4064 10.5828 12.3634 10.8514L11.5264 16.9089C11.451 17.4036 11.3888 17.7878 11.3409 18.0613C11.2925 18.3359 11.2303 18.5522 11.1549 18.7145C11.0151 19.0145 10.7526 19.2434 10.3657 19.3986C9.97882 19.5543 9.57653 19.633 9.15772 19.633C8.84623 19.633 8.5562 19.589 8.28764 19.5032C8.01963 19.4179 7.8094 19.2885 7.65861 19.1168C7.60522 18.977 7.5678 18.8108 7.54579 18.6171C7.52432 18.4234 7.51882 18.2115 7.52983 17.9798C7.54029 17.7498 7.559 17.5109 7.58651 17.2638C7.61238 17.0162 7.6432 16.7691 7.67567 16.5225L8.3091 11.9724C8.34763 11.8843 8.379 11.793 8.3933 11.6945L10.035 0.698805C9.07352 1.00919 8.15886 1.42139 7.29594 1.91504L6.02631 10.416C5.99329 10.5388 5.96247 10.6775 5.93441 10.8514L5.09735 16.9259C5.04286 17.2374 5.00324 17.5423 4.97517 17.8439C4.94931 18.1438 4.93555 18.4234 4.93555 18.6826C4.95701 19.7453 5.30702 20.5565 5.98339 21.1162C6.6603 21.6742 7.62008 21.9582 8.86769 21.9686C9.4582 21.9797 10.0135 21.9065 10.5352 21.7507C11.0553 21.5961 11.5264 21.3726 11.9441 21.0821C12.3634 20.792 12.7233 20.4437 13.0249 20.0359C13.3249 19.6264 13.5566 19.1752 13.7178 18.6826C13.8031 18.4234 13.8702 18.1367 13.9187 17.8197C13.9677 17.5027 14.0128 17.1995 14.0557 16.9089L14.8944 10.8514C14.9362 10.5718 14.9577 10.3599 14.9577 10.2152Z" fill="white"/>
<path d="M22.5303 13.3811L22.4659 13.8968C22.3487 14.7135 21.8105 15.1207 20.8545 15.1207H20.0175C19.7814 15.1207 19.5657 15.1124 19.3725 15.097C19.1788 15.0811 18.9752 15.0519 18.76 15.0079L19.1634 12.1406H21.2733C22.2298 12.1406 22.6486 12.5545 22.5303 13.3811ZM24.5776 10.6498C24.0184 10.0758 23.0674 9.78852 21.7257 9.78852H16.6654C16.5152 9.78852 16.3842 9.8342 16.2714 9.925C16.1585 10.0169 16.0909 10.1369 16.0694 10.2877L15.972 11.0768C15.9945 11.2056 16.0639 11.3322 16.1822 11.456C16.3011 11.5799 16.4656 11.6839 16.6814 11.7697L15.7243 18.65L14.1895 28.9291C14.2847 28.9308 14.3777 28.9429 14.4729 28.9429C15.2588 28.9429 16.0243 28.8636 16.7755 28.7437L18.4705 17.393V17.409H18.503C18.6097 17.431 18.8139 17.4437 19.1149 17.4492C19.4154 17.4547 19.8128 17.4684 20.3075 17.4904H20.6449C21.9767 17.4904 23.0025 17.2109 23.7229 16.6517C24.4427 16.0937 24.8819 15.25 25.0437 14.1229L25.1565 13.2683C25.3288 12.0977 25.135 11.2249 24.5776 10.6498Z" fill="white"/>
</svg>
