<svg width="124" height="124" viewBox="0 0 124 124" fill="none" xmlns="http://www.w3.org/2000/svg">
<path d="M88 60L81.5 67L78.5 76.5L80.5 84.5L84.5 90L90.5 94.5L98.5 96.5L108 94L113.5 89.5L117 83L118 75L115.5 67L111.5 61.5L105.5 58.5L97.5 57L88 60Z" fill="#E4F7FF"/>
<path d="M115.582 58.6191L117.742 55.4319C117.813 55.3263 117.863 55.2078 117.889 55.0829C117.914 54.9581 117.915 54.8294 117.89 54.7043C117.866 54.5793 117.817 54.4602 117.747 54.354C117.677 54.2477 117.586 54.1565 117.48 54.0853L112.637 50.8303C112.531 50.7589 112.412 50.709 112.288 50.6835C112.163 50.658 112.034 50.6574 111.909 50.6817C111.784 50.706 111.665 50.7548 111.559 50.8251C111.452 50.8955 111.361 50.9862 111.29 51.0919L109.198 54.25C106.978 53.1771 104.611 52.4424 102.174 52.0703V48.5247H103.201C103.972 48.5247 104.711 48.2185 105.256 47.6735C105.801 47.1284 106.107 46.3892 106.107 45.6184V45.3569C106.107 44.5861 105.801 43.8469 105.256 43.3019C104.711 42.7568 103.972 42.4506 103.201 42.4506H93.3875C92.6167 42.4506 91.8775 42.7568 91.3325 43.3019C90.7874 43.8469 90.4813 44.5861 90.4813 45.3569V45.6184C90.4813 46.3892 90.7874 47.1284 91.3325 47.6735C91.8775 48.2185 92.6167 48.5247 93.3875 48.5247H94.4241V52.0413C89.9881 52.7224 85.8147 54.5763 82.3356 57.4114C78.8565 60.2464 76.1981 63.9596 74.6354 68.1666C73.0726 72.3737 72.6624 76.9219 73.4471 81.3408C74.2317 85.7596 76.1828 89.8885 79.0984 93.3003H7.13C5.88211 93.2978 4.68607 92.8009 3.80368 91.9185C2.92129 91.0361 2.42443 89.8401 2.42188 88.5922V78.0038H68.4809C68.7379 78.0038 68.9843 77.9017 69.166 77.72C69.3476 77.5383 69.4497 77.2919 69.4497 77.035C69.4497 76.7781 69.3476 76.5317 69.166 76.35C68.9843 76.1683 68.7379 76.0663 68.4809 76.0663H2.42188V19.9272C2.42444 18.6802 2.92161 17.4852 3.80427 16.6043C4.68694 15.7235 5.883 15.2288 7.13 15.2288H106.194C107.441 15.2288 108.637 15.7235 109.52 16.6043C110.403 17.4852 110.9 18.6802 110.903 19.9272V44.33C110.903 44.5869 111.005 44.8333 111.186 45.015C111.368 45.1967 111.614 45.2988 111.871 45.2988C112.128 45.2988 112.375 45.1967 112.556 45.015C112.738 44.8333 112.84 44.5869 112.84 44.33V19.9272C112.835 18.1671 112.133 16.4808 110.887 15.2371C109.642 13.9935 107.954 13.2938 106.194 13.2913H7.13C5.36993 13.2938 3.68254 13.9935 2.43708 15.2371C1.19161 16.4808 0.489497 18.1671 0.484375 19.9272V88.5922C0.486938 90.3539 1.18792 92.0428 2.43366 93.2885C3.67941 94.5343 5.36826 95.2353 7.13 95.2378H41.6563L38.75 108.8H28.2391C27.9821 108.8 27.7357 108.902 27.5541 109.084C27.3724 109.266 27.2703 109.512 27.2703 109.769C27.2703 110.026 27.3724 110.272 27.5541 110.454C27.7357 110.636 27.9821 110.738 28.2391 110.738H85.0853C85.3422 110.738 85.5887 110.636 85.7703 110.454C85.952 110.272 86.0541 110.026 86.0541 109.769C86.0541 109.512 85.952 109.266 85.7703 109.084C85.5887 108.902 85.3422 108.8 85.0853 108.8H74.5938L71.6875 95.2378H80.9391C83.3435 97.5125 86.1724 99.2913 89.2643 100.473C92.3561 101.654 95.6504 102.215 98.959 102.123C102.268 102.031 105.526 101.289 108.547 99.9379C111.569 98.587 114.295 96.6541 116.57 94.2497C118.844 91.8453 120.623 89.0164 121.805 85.9245C122.986 82.8326 123.547 79.5383 123.455 76.2297C123.363 72.9211 122.621 69.663 121.27 66.6413C119.919 63.6197 117.986 60.8937 115.582 58.6191ZM112.375 52.9809L115.582 55.1509L114.099 57.3306C113.093 56.5221 112.028 55.7902 110.912 55.1413L112.375 52.9809ZM92.4091 45.6088V45.3472C92.4091 45.0903 92.5111 44.8439 92.6928 44.6622C92.8745 44.4805 93.1209 44.3784 93.3778 44.3784H103.191C103.448 44.3784 103.695 44.4805 103.876 44.6622C104.058 44.8439 104.16 45.0903 104.16 45.3472V45.6088C104.16 45.8657 104.058 46.1121 103.876 46.2938C103.695 46.4754 103.448 46.5775 103.191 46.5775H93.3875C93.2595 46.5788 93.1325 46.5547 93.0138 46.5066C92.8951 46.4585 92.7872 46.3873 92.6962 46.2972C92.6052 46.2071 92.533 46.0999 92.4837 45.9817C92.4344 45.8636 92.4091 45.7368 92.4091 45.6088ZM96.3616 48.515H100.237V51.8088C99.5875 51.7603 98.9481 51.7313 98.2991 51.7313C97.65 51.7313 97.0009 51.7313 96.3616 51.8088V48.515ZM72.6563 108.771H40.6875L43.5938 95.2088H69.75L72.6563 108.771ZM98.3475 100.246C93.7491 100.246 89.2539 98.8827 85.4305 96.3279C81.6071 93.7732 78.627 90.142 76.8673 85.8937C75.1076 81.6453 74.6471 76.9705 75.5443 72.4604C76.4414 67.9503 78.6557 63.8076 81.9073 60.556C85.1588 57.3045 89.3016 55.0901 93.8117 54.193C98.3217 53.2959 102.997 53.7563 107.245 55.5161C111.493 57.2758 115.124 60.2558 117.679 64.0793C120.234 67.9027 121.598 72.3978 121.598 76.9963C121.582 83.1662 119.121 89.0783 114.754 93.4366C110.386 97.7949 104.469 100.244 98.2991 100.246H98.3475Z" fill="#00BBE4"/>
<path d="M114.246 69.8954C114.196 69.7781 114.123 69.6719 114.031 69.583C113.939 69.4942 113.831 69.4243 113.712 69.3775C113.593 69.3307 113.466 69.3078 113.338 69.3102C113.211 69.3127 113.085 69.3403 112.968 69.3916L99.754 75.2041C99.3698 74.8728 98.8844 74.6819 98.3775 74.6626C97.8706 74.6434 97.3721 74.7969 96.9639 75.0981C96.5557 75.3993 96.2619 75.8302 96.1308 76.3203C95.9996 76.8103 96.0389 77.3304 96.2421 77.7952C96.4453 78.26 96.8004 78.642 97.2491 78.8785C97.6979 79.1151 98.2138 79.1921 98.7121 79.097C99.2104 79.0019 99.6616 78.7403 99.9917 78.3551C100.322 77.9699 100.511 77.4839 100.529 76.977L113.743 71.1645C113.977 71.0623 114.162 70.8715 114.256 70.6338C114.351 70.396 114.347 70.1306 114.246 69.8954Z" fill="#00BBE4"/>
<path d="M112.879 62.3004H112.821C108.965 58.4504 103.739 56.2881 98.2896 56.2881C92.8407 56.2881 87.6144 58.4504 83.7584 62.3004C79.9085 66.1564 77.7461 71.3827 77.7461 76.8316C77.7461 82.2806 79.9085 87.5069 83.7584 91.3629V91.421C87.6182 95.2639 92.843 97.4213 98.2896 97.4213C103.736 97.4213 108.961 95.2639 112.821 91.421H112.879V91.3629C116.729 87.5069 118.891 82.2806 118.891 76.8316C118.891 71.3827 116.729 66.1564 112.879 62.3004ZM114.187 77.8004H116.928C116.706 82.0743 115.02 86.1415 112.152 89.3188L110.215 87.3813C110.03 87.2226 109.791 87.1397 109.547 87.1491C109.304 87.1585 109.072 87.2596 108.9 87.4321C108.727 87.6047 108.626 87.8359 108.617 88.0797C108.607 88.3236 108.69 88.5619 108.849 88.7473L110.787 90.6848C107.619 93.5608 103.551 95.2487 99.2778 95.4607V92.7676C99.2778 92.5107 99.1757 92.2642 98.994 92.0826C98.8124 91.9009 98.566 91.7988 98.309 91.7988C98.0521 91.7988 97.8057 91.9009 97.624 92.0826C97.4423 92.2642 97.3403 92.5107 97.3403 92.7676V95.5091C93.0635 95.2994 88.9922 93.6113 85.8218 90.7332L87.7593 88.7957C87.9398 88.6142 88.041 88.3687 88.041 88.1127C88.041 87.8568 87.9398 87.6113 87.7593 87.4298C87.6693 87.339 87.5621 87.2669 87.4441 87.2177C87.326 87.1685 87.1994 87.1432 87.0715 87.1432C86.9436 87.1432 86.817 87.1685 86.699 87.2177C86.5809 87.2669 86.4738 87.339 86.3837 87.4298L84.4462 89.3673C81.5791 86.19 79.8926 82.1228 79.6703 77.8488H82.4118C82.6688 77.8488 82.9152 77.7468 83.0968 77.5651C83.2785 77.3834 83.3806 77.137 83.3806 76.8801C83.3806 76.6232 83.2785 76.3767 83.0968 76.1951C82.9152 76.0134 82.6688 75.9113 82.4118 75.9113H79.6606C79.883 71.6374 81.5694 67.5702 84.4365 64.3929L86.374 66.3304C86.4646 66.4202 86.5719 66.4912 86.6899 66.5394C86.808 66.5876 86.9343 66.6121 87.0618 66.6113C87.1893 66.6121 87.3157 66.5876 87.4337 66.5394C87.5518 66.4912 87.6591 66.4202 87.7497 66.3304C87.9301 66.1489 88.0314 65.9034 88.0314 65.6474C88.0314 65.3915 87.9301 65.146 87.7497 64.9645L85.8122 63.027C88.9825 60.1489 93.0538 58.4608 97.3306 58.251V61.0313C97.3306 61.2883 97.4327 61.5347 97.6143 61.7163C97.796 61.898 98.0424 62.0001 98.2993 62.0001C98.5563 62.0001 98.8027 61.898 98.9843 61.7163C99.166 61.5347 99.2681 61.2883 99.2681 61.0313V58.251C103.544 58.4647 107.614 60.1523 110.787 63.027L108.849 64.9645C108.716 65.0999 108.626 65.2712 108.59 65.4574C108.554 65.6435 108.573 65.8362 108.645 66.0115C108.717 66.1869 108.839 66.3372 108.996 66.4438C109.153 66.5504 109.338 66.6087 109.527 66.6113C109.655 66.6121 109.781 66.5876 109.899 66.5394C110.017 66.4912 110.124 66.4202 110.215 66.3304L112.152 64.3929C115.02 67.5702 116.706 71.6374 116.928 75.9113H114.187C113.93 75.9113 113.684 76.0134 113.502 76.1951C113.32 76.3767 113.218 76.6232 113.218 76.8801C113.218 77.137 113.32 77.3834 113.502 77.5651C113.684 77.7468 113.93 77.8488 114.187 77.8488V77.8004Z" fill="#00BBE4"/>
<path d="M53.2812 85.9281C53.2813 86.6064 53.4824 87.2694 53.8592 87.8334C54.236 88.3974 54.7716 88.8369 55.3983 89.0965C56.0249 89.356 56.7144 89.4239 57.3797 89.2916C58.0449 89.1593 58.656 88.8327 59.1356 88.3531C59.6152 87.8735 59.9418 87.2624 60.0741 86.5972C60.2064 85.9319 60.1385 85.2424 59.879 84.6158C59.6194 83.9891 59.1798 83.4536 58.6159 83.0767C58.0519 82.6999 57.3889 82.4988 56.7106 82.4988C55.8011 82.4988 54.9288 82.8601 54.2857 83.5032C53.6426 84.1463 53.2813 85.0186 53.2812 85.9281ZM58.2025 85.9281C58.2025 86.2232 58.115 86.5117 57.9511 86.757C57.7871 87.0023 57.5541 87.1935 57.2815 87.3065C57.0089 87.4194 56.709 87.4489 56.4196 87.3914C56.1302 87.3338 55.8644 87.1917 55.6557 86.9831C55.4471 86.7744 55.305 86.5086 55.2474 86.2192C55.1899 85.9298 55.2194 85.6298 55.3323 85.3572C55.4452 85.0846 55.6364 84.8516 55.8818 84.6877C56.1271 84.5238 56.4156 84.4363 56.7106 84.4363C57.0927 84.4562 57.4526 84.6221 57.7158 84.8997C57.979 85.1774 58.1255 85.5455 58.125 85.9281H58.2025Z" fill="#00BBE4"/>
<path d="M26.7284 29.5953C26.7284 29.3384 26.6264 29.092 26.4447 28.9103C26.263 28.7287 26.0166 28.6266 25.7597 28.6266H14.3672C14.1103 28.6266 13.8639 28.7287 13.6822 28.9103C13.5005 29.092 13.3984 29.3384 13.3984 29.5953V40.9878C13.3984 41.2448 13.5005 41.4912 13.6822 41.6728C13.8639 41.8545 14.1103 41.9566 14.3672 41.9566H25.7597C26.0166 41.9566 26.263 41.8545 26.4447 41.6728C26.6264 41.4912 26.7284 41.2448 26.7284 40.9878V29.5953ZM24.7909 40.0191H15.3359V30.5641H24.7909V40.0191Z" fill="#00BBE4"/>
<path d="M79.7087 28.6266H35.8438C35.5868 28.6266 35.3404 28.7287 35.1587 28.9103C34.9771 29.092 34.875 29.3384 34.875 29.5953C34.875 29.8523 34.9771 30.0987 35.1587 30.2803C35.3404 30.462 35.5868 30.5641 35.8438 30.5641H79.7087C79.9657 30.5641 80.2121 30.462 80.3938 30.2803C80.5754 30.0987 80.6775 29.8523 80.6775 29.5953C80.6775 29.3384 80.5754 29.092 80.3938 28.9103C80.2121 28.7287 79.9657 28.6266 79.7087 28.6266Z" fill="#00BBE4"/>
<path d="M79.7087 34.3228H35.8438C35.5868 34.3228 35.3404 34.4248 35.1587 34.6065C34.9771 34.7882 34.875 35.0346 34.875 35.2915C34.875 35.5484 34.9771 35.7948 35.1587 35.9765C35.3404 36.1582 35.5868 36.2603 35.8438 36.2603H79.7087C79.9657 36.2603 80.2121 36.1582 80.3938 35.9765C80.5754 35.7948 80.6775 35.5484 80.6775 35.2915C80.6775 35.0346 80.5754 34.7882 80.3938 34.6065C80.2121 34.4248 79.9657 34.3228 79.7087 34.3228Z" fill="#00BBE4"/>
<path d="M79.7087 40.019H35.8438C35.5868 40.019 35.3404 40.1211 35.1587 40.3028C34.9771 40.4845 34.875 40.7309 34.875 40.9878C34.875 41.2447 34.9771 41.4911 35.1587 41.6728C35.3404 41.8545 35.5868 41.9565 35.8438 41.9565H79.7087C79.9657 41.9565 80.2121 41.8545 80.3938 41.6728C80.5754 41.4911 80.6775 41.2447 80.6775 40.9878C80.6775 40.7309 80.5754 40.4845 80.3938 40.3028C80.2121 40.1211 79.9657 40.019 79.7087 40.019Z" fill="#00BBE4"/>
<path d="M25.7597 51.4116H14.3672C14.1103 51.4116 13.8639 51.5137 13.6822 51.6954C13.5005 51.877 13.3984 52.1234 13.3984 52.3804V63.7729C13.3984 64.0298 13.5005 64.2762 13.6822 64.4579C13.8639 64.6396 14.1103 64.7416 14.3672 64.7416H25.7597C26.0166 64.7416 26.263 64.6396 26.4447 64.4579C26.6264 64.2762 26.7284 64.0298 26.7284 63.7729V52.3804C26.7284 52.1234 26.6264 51.877 26.4447 51.6954C26.263 51.5137 26.0166 51.4116 25.7597 51.4116ZM24.7909 62.8041H15.3359V53.3491H24.7909V62.8041Z" fill="#00BBE4"/>
<path d="M80.6775 52.3804C80.6775 52.1234 80.5754 51.877 80.3938 51.6954C80.2121 51.5137 79.9657 51.4116 79.7087 51.4116H35.8438C35.5868 51.4116 35.3404 51.5137 35.1587 51.6954C34.9771 51.877 34.875 52.1234 34.875 52.3804C34.875 52.6373 34.9771 52.8837 35.1587 53.0654C35.3404 53.2471 35.5868 53.3491 35.8438 53.3491H79.7087C79.9657 53.3491 80.2121 53.2471 80.3938 53.0654C80.5754 52.8837 80.6775 52.6373 80.6775 52.3804Z" fill="#00BBE4"/>
<path d="M58.9291 57.1562H35.8438C35.5868 57.1562 35.3404 57.2583 35.1587 57.44C34.9771 57.6217 34.875 57.8681 34.875 58.125C34.875 58.3819 34.9771 58.6283 35.1587 58.81C35.3404 58.9917 35.5868 59.0938 35.8438 59.0938H58.9291C59.186 59.0938 59.4324 58.9917 59.6141 58.81C59.7957 58.6283 59.8978 58.3819 59.8978 58.125C59.8978 57.8681 59.7957 57.6217 59.6141 57.44C59.4324 57.2583 59.186 57.1562 58.9291 57.1562Z" fill="#00BBE4"/>
<path d="M58.9291 62.8041H35.8438C35.5868 62.8041 35.3404 62.9061 35.1587 63.0878C34.9771 63.2695 34.875 63.5159 34.875 63.7728C34.875 64.0298 34.9771 64.2762 35.1587 64.4578C35.3404 64.6395 35.5868 64.7416 35.8438 64.7416H58.9291C59.186 64.7416 59.4324 64.6395 59.6141 64.4578C59.7957 64.2762 59.8978 64.0298 59.8978 63.7728C59.8978 63.5159 59.7957 63.2695 59.6141 63.0878C59.4324 62.9061 59.186 62.8041 58.9291 62.8041Z" fill="#00BBE4"/>
</svg>
