<svg width="23" height="23" viewBox="0 0 23 23" fill="none" xmlns="http://www.w3.org/2000/svg">
<path d="M20.3047 3.05469H2.69531C1.20912 3.05469 0 4.2638 0 5.75V17.25C0 18.7362 1.20912 19.9453 2.69531 19.9453H20.3047C21.7909 19.9453 23 18.7362 23 17.25V5.75C23 4.2638 21.7909 3.05469 20.3047 3.05469ZM21.2031 17.25C21.2031 17.7454 20.8001 18.1484 20.3047 18.1484H2.69531C2.19991 18.1484 1.79688 17.7454 1.79688 17.25V5.75C1.79688 5.2546 2.19991 4.85156 2.69531 4.85156H20.3047C20.8001 4.85156 21.2031 5.2546 21.2031 5.75V17.25Z" fill="#00BBE4"/>
<path d="M21.0486 4.1748L11.498 11.2786L1.94746 4.1748L0.875 5.61657L11.498 13.5181L22.1211 5.61657L21.0486 4.1748Z" fill="#00BBE4"/>
</svg>
