<svg width="96" height="96" viewBox="0 0 96 96" fill="none" xmlns="http://www.w3.org/2000/svg">
<path d="M24.387 31.7418L20.1289 39.8709L27.8708 51.0967L40.2579 64.258L53.8063 65.0322L64.2579 55.3547L70.0644 47.2257L76.2579 41.0322L70.0644 29.0322L59.6128 21.6773L50.7096 19.3547L43.7418 20.1289L33.2902 23.6128L24.387 31.7418Z" fill="#E4F7FF"/>
<path d="M34.0141 17.4149C33.9432 17.4843 33.8868 17.5672 33.8482 17.6586C33.8096 17.75 33.7895 17.8481 33.7891 17.9474C33.7897 18.0957 33.8343 18.2405 33.9172 18.3635C34.0001 18.4865 34.1176 18.5821 34.2549 18.6383C34.3922 18.6945 34.5431 18.7087 34.6884 18.6792C34.8338 18.6497 34.9671 18.5777 35.0716 18.4724C35.2101 18.3327 35.2882 18.1441 35.2891 17.9474C35.2896 17.8487 35.2707 17.7508 35.2334 17.6594C35.1961 17.5681 35.1411 17.485 35.0716 17.4149C34.931 17.2752 34.741 17.1968 34.5428 17.1968C34.3447 17.1968 34.1546 17.2752 34.0141 17.4149Z" fill="#00BBE4"/>
<path d="M94.875 48C94.6761 48 94.4853 48.079 94.3447 48.2197C94.204 48.3603 94.125 48.5511 94.125 48.75C94.125 53.8725 86.4675 58.5 74.9325 61.395C77.9537 54.9952 78.5971 47.7287 76.7475 40.8975C80.595 35.0025 83.88 28.1475 83.88 21.3975C84.7084 20.9683 85.426 20.3529 85.9765 19.5996C86.527 18.8464 86.8955 17.9758 87.053 17.0562C87.2105 16.1366 87.1528 15.193 86.8843 14.2995C86.6158 13.406 86.1438 12.5869 85.5055 11.9064C84.8672 11.226 84.0799 10.7027 83.2054 10.3777C82.3308 10.0527 81.3929 9.93477 80.4651 10.0332C79.5373 10.1317 78.645 10.4438 77.8581 10.9451C77.0713 11.4464 76.4113 12.1233 75.93 12.9225C70.995 12.75 64.065 15.285 56.28 20.115C49.0099 18.0016 41.2077 18.7378 34.4613 22.1737C27.7148 25.6096 22.5311 31.4871 19.965 38.61C18.855 36.765 17.865 34.9425 17.0175 33.18C13.155 25.1475 12.5625 18.93 15.3825 16.1025C15.5054 15.959 15.5696 15.7745 15.5623 15.5857C15.555 15.397 15.4767 15.2179 15.3432 15.0844C15.2096 14.9508 15.0305 14.8725 14.8418 14.8652C14.653 14.858 14.4685 14.9222 14.325 15.045C10.9725 18.39 11.4525 25.065 15.6675 33.8325C15.9675 34.455 16.29 35.0925 16.62 35.7225C6.15 39 0.375 43.5975 0.375 48.75C0.375 54 6.63 58.6575 16.6425 61.785C16.275 62.6175 15.8325 63.7575 15.42 64.785C15.0075 65.8125 14.7075 66.6075 14.5125 67.035C14.4709 67.1246 14.4474 67.2215 14.4434 67.3202C14.4394 67.4189 14.4549 67.5174 14.489 67.6101C14.5231 67.7028 14.5753 67.7878 14.6424 67.8603C14.7095 67.9328 14.7902 67.9913 14.88 68.0325C14.9776 68.0813 15.086 68.1045 15.195 68.1C15.3372 68.099 15.4761 68.0575 15.5956 67.9805C15.7151 67.9035 15.8103 67.7941 15.87 67.665C16.0875 67.2075 16.425 66.3525 16.815 65.355C17.205 64.3575 17.73 63.0225 18.09 62.22C19.35 62.585 20.6625 62.925 22.0275 63.24C25.5625 69.5178 31.2422 74.3108 38.025 76.74C36.525 77.63 35 78.4625 33.45 79.2375C29.1225 81.42 24.0675 83.565 19.365 83.0625C19.705 82.145 19.7434 81.1429 19.4746 80.202C19.2058 79.2612 18.6438 78.4306 17.8704 77.8312C17.097 77.2318 16.1525 76.8947 15.1743 76.8691C14.1961 76.8435 13.2353 77.1306 12.4316 77.6888C11.6279 78.2469 11.0232 79.0469 10.7055 79.9724C10.3878 80.8979 10.3737 81.9007 10.6652 82.8347C10.9568 83.7688 11.5387 84.5855 12.3264 85.166C13.1141 85.7466 14.0665 86.0606 15.045 86.0625C15.7266 86.0619 16.3996 85.9103 17.0156 85.6185C17.6316 85.3267 18.1753 84.9021 18.6075 84.375C18.702 84.4384 18.8098 84.4794 18.9225 84.495C19.5366 84.5763 20.1555 84.6164 20.775 84.615C25.3725 84.615 30.06 82.5975 34.125 80.55C36.07 79.55 38.0025 78.47 39.9225 77.31C45.222 78.82 50.838 78.82 56.1375 77.31C63.75 82.05 70.5225 84.57 75.4725 84.57C78.105 84.57 80.22 83.865 81.675 82.41C84.3675 79.71 84.6075 74.91 82.3575 68.46C82.2919 68.2721 82.1542 68.1179 81.9749 68.0314C81.7956 67.9449 81.5892 67.9331 81.4013 67.9988C81.2133 68.0644 81.0591 68.202 80.9726 68.3814C80.8861 68.5607 80.8744 68.7671 80.94 68.955C82.9875 74.805 82.875 79.0875 80.6175 81.345C77.085 84.87 68.445 82.9725 58.0275 76.71C64.7884 74.2659 70.4467 69.4752 73.9725 63.21C87.09 60.21 95.625 54.8775 95.625 48.72C95.6172 48.5264 95.5348 48.3432 95.395 48.209C95.2552 48.0748 95.0688 47.9999 94.875 48ZM15.045 84.57C14.4303 84.5715 13.8289 84.3905 13.3171 84.0499C12.8054 83.7093 12.4062 83.2244 12.1703 82.6567C11.9344 82.0891 11.8722 81.4641 11.9918 80.8611C12.1114 80.2581 12.4072 79.7042 12.8419 79.2695C13.2766 78.8348 13.8306 78.5389 14.4336 78.4193C15.0366 78.2998 15.6615 78.3619 16.2292 78.5978C16.7969 78.8338 17.2817 79.2329 17.6223 79.7447C17.9629 80.2564 18.144 80.8578 18.1425 81.4725C18.1405 82.2934 17.8135 83.0801 17.2331 83.6606C16.6526 84.2411 15.8659 84.568 15.045 84.57ZM76.2825 48.6525C76.2881 53.2399 75.1706 57.759 73.0275 61.815C67.7389 62.9659 62.3713 63.7181 56.97 64.065C60.911 60.3283 64.6299 56.364 68.1075 52.1925C70.2 49.68 72.975 46.3575 75.6075 42.5475C76.0537 44.5519 76.28 46.599 76.2825 48.6525ZM81.09 11.43C82.0711 11.4267 83.0272 11.7399 83.8161 12.3232C84.6051 12.9064 85.1849 13.7286 85.4695 14.6675C85.754 15.6065 85.7281 16.6122 85.3956 17.5353C85.0631 18.4584 84.4418 19.2496 83.6238 19.7915C82.8059 20.3333 81.835 20.5969 80.8553 20.5431C79.8757 20.4893 78.9395 20.121 78.1858 19.4928C77.4322 18.8646 76.9012 18.0101 76.6718 17.0561C76.4424 16.1022 76.5268 15.0997 76.9125 14.1975C76.989 14.1346 77.0522 14.0571 77.0985 13.9695C77.1449 13.882 77.1734 13.7861 77.1825 13.6875C77.5814 13.0041 78.1516 12.4364 78.8368 12.0405C79.5221 11.6447 80.2987 11.4342 81.09 11.43ZM75.2775 14.34C75.1274 14.8722 75.0492 15.4221 75.045 15.975C75.0373 16.8801 75.2344 17.7751 75.6216 18.5932C76.0088 19.4112 76.576 20.1311 77.2809 20.6989C77.9857 21.2666 78.8099 21.6676 79.6916 21.8717C80.5734 22.0758 81.4899 22.0778 82.3725 21.8775C82.2075 27.75 79.5 33.705 76.17 39C74.7189 34.7991 72.3507 30.9739 69.2372 27.8021C66.1238 24.6303 62.3433 22.1914 58.17 20.6625C64.935 16.59 70.92 14.385 75.2775 14.34ZM71.9475 33.63H59.31C57.81 27.7275 55.485 23.13 52.65 20.76C56.5921 21.4234 60.3494 22.9131 63.6752 25.1311C67.001 27.3492 69.8201 30.2455 71.9475 33.63ZM47.25 20.4375V33.63H38.25C40.2375 26.25 43.5375 21.06 47.25 20.4375ZM47.25 35.13V47.625H36.465C36.5178 43.421 37.0054 39.2337 37.92 35.13H47.25ZM48.75 35.13H58.08C58.9946 39.2337 59.4822 43.421 59.535 47.625H48.75V35.13ZM48.75 33.63V20.4375C52.5 21.06 55.7625 26.22 57.75 33.63H48.75ZM43.35 20.76C40.5 23.16 38.175 27.75 36.69 33.63H24.0525C26.1799 30.2455 28.999 27.3492 32.3248 25.1311C35.6506 22.9131 39.4078 21.4234 43.35 20.76ZM23.1675 35.13H36.345C35.4696 39.2386 35.0073 43.4244 34.965 47.625H31.14C30.9411 47.625 30.7503 47.704 30.6097 47.8447C30.469 47.9853 30.39 48.1761 30.39 48.375C30.39 48.5739 30.469 48.7647 30.6097 48.9054C30.7503 49.046 30.9411 49.125 31.14 49.125H34.965C34.965 51.0825 35.0625 53.04 35.235 54.9375C35.2519 55.1245 35.3383 55.2984 35.4772 55.4247C35.616 55.5511 35.7972 55.6208 35.985 55.62H36.0525C36.1524 55.6134 36.2501 55.5869 36.3396 55.542C36.4291 55.497 36.5087 55.4346 36.5737 55.3584C36.6388 55.2822 36.6878 55.1938 36.7181 55.0983C36.7484 55.0028 36.7592 54.9023 36.75 54.8025C36.5775 52.95 36.495 51.0525 36.4875 49.125H47.25V58.0575C47.25 58.2564 47.329 58.4472 47.4697 58.5879C47.6103 58.7285 47.8011 58.8075 48 58.8075C48.1989 58.8075 48.3897 58.7285 48.5303 58.5879C48.671 58.4472 48.75 58.2564 48.75 58.0575V49.125H59.535C59.535 51.0375 59.445 52.9425 59.2725 54.8025C59.2636 54.901 59.2743 55.0003 59.3038 55.0947C59.3333 55.1891 59.3811 55.2767 59.4444 55.3526C59.5078 55.4285 59.5855 55.4912 59.6731 55.5371C59.7607 55.583 59.8565 55.6112 59.955 55.62C60.0535 55.6289 60.1528 55.6183 60.2472 55.5888C60.3415 55.5593 60.4292 55.5115 60.5051 55.4481C60.581 55.3847 60.6437 55.307 60.6896 55.2194C60.7355 55.1318 60.7636 55.036 60.7725 54.9375C60.945 53.04 61.035 51.0825 61.0425 49.125H64.8675C65.0664 49.125 65.2572 49.046 65.3978 48.9054C65.5385 48.7647 65.6175 48.5739 65.6175 48.375C65.6175 48.1761 65.5385 47.9853 65.3978 47.8447C65.2572 47.704 65.0664 47.625 64.8675 47.625H61.0425C61.0002 43.4244 60.5379 39.2386 59.6625 35.13H72.8325C73.7745 36.8727 74.5287 38.7105 75.0825 40.6125C72.5663 44.2948 69.8549 47.8398 66.96 51.2325C63.1397 55.8356 59.0208 60.1825 54.63 64.245C52.46 64.36 50.25 64.4175 48 64.4175C45.8175 64.4175 43.6725 64.3575 41.565 64.2525C39.99 62.82 38.43 61.3425 36.9075 59.82C30.9133 53.8972 25.5795 47.3413 21 40.2675C21.5455 38.4856 22.2717 36.7641 23.1675 35.13ZM20.46 42.225C24.9438 48.9465 30.0977 55.196 35.8425 60.8775C36.9425 61.9775 38.06 63.055 39.195 64.11C33.7376 63.7531 28.3148 62.986 22.9725 61.815C20.8294 57.759 19.7119 53.2399 19.7175 48.6525C19.7196 46.4888 19.9687 44.3323 20.46 42.225ZM1.875 48.75C1.875 44.3625 7.515 40.125 17.34 37.1025C17.96 38.2325 18.6325 39.375 19.3575 40.53C17.381 47.4625 17.9886 54.8768 21.0675 61.395C9.5325 58.5 1.875 53.8425 1.875 48.75ZM24 63.645C29.584 64.7682 35.2453 65.4652 40.935 65.73C41.6025 66.3375 42.27 66.93 42.945 67.515C43.62 68.1 44.445 68.79 45.195 69.405C45.2713 69.4677 45.3591 69.5148 45.4536 69.5435C45.5481 69.5722 45.6473 69.5819 45.7456 69.5721C45.8438 69.5624 45.9392 69.5333 46.0262 69.4866C46.1132 69.4399 46.1901 69.3765 46.2525 69.3C46.3795 69.1493 46.442 68.9546 46.4266 68.7581C46.4111 68.5616 46.319 68.3791 46.17 68.25C45.42 67.6425 44.67 67.02 43.92 66.3825C43.71 66.21 43.5075 66.0225 43.305 65.8425C44.835 65.8925 46.3875 65.92 47.9625 65.925C49.6125 65.925 51.2325 65.925 52.8375 65.835C48.7297 69.4857 44.3244 72.7871 39.6675 75.705C33.1698 73.69 27.6106 69.4108 24 63.645ZM56.34 75.645C54.51 74.49 52.59 73.2 50.7225 71.79C50.6432 71.7314 50.5532 71.689 50.4575 71.6652C50.3618 71.6414 50.2624 71.6367 50.1649 71.6513C50.0674 71.6659 49.9737 71.6996 49.8892 71.7504C49.8047 71.8013 49.7311 71.8682 49.6725 71.9475C49.6139 72.0268 49.5715 72.1169 49.5477 72.2125C49.5239 72.3082 49.5192 72.4076 49.5338 72.5051C49.5484 72.6026 49.5821 72.6963 49.6329 72.7808C49.6837 72.8653 49.7507 72.9389 49.83 72.9975C51.375 74.1375 52.89 75.1875 54.3825 76.17C50.1887 77.1474 45.8263 77.1474 41.6325 76.17C46.4337 73.0524 50.9669 69.5403 55.185 65.67C60.8331 65.4204 66.4541 64.7435 72 63.645C68.3948 69.3938 62.8501 73.6614 56.37 75.675L56.34 75.645Z" fill="#00BBE4"/>
<path d="M91.6955 43.5001C91.8468 43.4997 91.9943 43.4536 92.1189 43.3678C92.2434 43.2821 92.3392 43.1607 92.3935 43.0196C92.4478 42.8784 92.4583 42.7242 92.4234 42.5771C92.3885 42.4299 92.3099 42.2968 92.198 42.1951C91.556 41.6181 90.8743 41.0868 90.158 40.6051C89.9939 40.4927 89.7919 40.4501 89.5964 40.4867C89.4009 40.5232 89.2279 40.636 89.1155 40.8001C89.0032 40.9642 88.9606 41.1662 88.9972 41.3617C89.0337 41.5572 89.1465 41.7302 89.3105 41.8426C89.9739 42.2958 90.6031 42.7971 91.193 43.3426C91.336 43.4541 91.5145 43.51 91.6955 43.5001Z" fill="#00BBE4"/>
<path d="M86.3619 38.445C86.3236 38.4153 86.2805 38.3924 86.2344 38.3775C86.1898 38.3546 86.1416 38.3394 86.0919 38.3325C85.9714 38.3083 85.8469 38.3142 85.7292 38.3495C85.6115 38.3848 85.5042 38.4485 85.4169 38.535C85.3507 38.6079 85.2974 38.6916 85.2594 38.7825C85.2174 38.8715 85.1969 38.9691 85.1994 39.0675C85.2002 39.1916 85.2318 39.3136 85.2914 39.4225C85.3509 39.5314 85.4366 39.6238 85.5407 39.6914C85.6447 39.7591 85.764 39.7998 85.8877 39.81C86.0114 39.8203 86.1357 39.7996 86.2494 39.75C86.3406 39.7092 86.4242 39.6534 86.4969 39.585C86.5664 39.5149 86.6214 39.4318 86.6587 39.3404C86.6961 39.249 86.715 39.1512 86.7144 39.0525C86.7132 38.9545 86.6928 38.8576 86.6544 38.7675C86.6164 38.6766 86.5632 38.5929 86.4969 38.52L86.3619 38.445Z" fill="#00BBE4"/>
<path d="M13.3047 73.1251C13.4028 73.1239 13.4996 73.1035 13.5897 73.0651C13.6812 73.0289 13.7632 72.9725 13.8297 72.9001C13.9711 72.7616 14.0519 72.5729 14.0547 72.3751C14.0546 72.2746 14.0341 72.1751 13.9947 72.0826C13.9585 71.9912 13.9021 71.9092 13.8297 71.8426C13.6892 71.7029 13.4991 71.6245 13.301 71.6245C13.1029 71.6245 12.9128 71.7029 12.7722 71.8426C12.7047 71.9132 12.649 71.9942 12.6072 72.0826C12.5717 72.176 12.5539 72.2752 12.5547 72.3751C12.5535 72.4726 12.5714 72.5694 12.6072 72.6601C12.646 72.7501 12.7021 72.8317 12.7722 72.9001C12.8417 72.971 12.9245 73.0274 13.0159 73.066C13.1074 73.1046 13.2055 73.1247 13.3047 73.1251Z" fill="#00BBE4"/>
<path d="M29.1135 14.8875C29.0223 14.9283 28.9386 14.984 28.866 15.0525C28.7964 15.1226 28.7414 15.2057 28.7041 15.2971C28.6668 15.3884 28.6479 15.4863 28.6485 15.585C28.6505 15.7571 28.7116 15.9233 28.8217 16.0556C28.9317 16.188 29.0839 16.2785 29.2528 16.3119C29.4216 16.3453 29.5968 16.3196 29.749 16.2392C29.9012 16.1587 30.021 16.0284 30.0885 15.87C30.1304 15.781 30.151 15.6834 30.1485 15.585C30.149 15.4863 30.1301 15.3884 30.0928 15.2971C30.0555 15.2057 30.0005 15.1226 29.931 15.0525C29.8263 14.9472 29.6928 14.8753 29.5473 14.8459C29.4017 14.8165 29.2507 14.831 29.1135 14.8875Z" fill="#00BBE4"/>
<path d="M19.4242 12.8776L19.0267 12.9226C18.8278 12.9345 18.6417 13.025 18.5095 13.1741C18.3773 13.3232 18.3097 13.5187 18.3217 13.7176C18.3336 13.9165 18.4241 14.1025 18.5732 14.2347C18.7222 14.367 18.9177 14.4345 19.1167 14.4226H19.2067L19.6117 14.3701C20.6816 14.2053 21.7617 14.1151 22.8442 14.1001C22.9427 14.1075 23.0416 14.0954 23.1355 14.0645C23.2293 14.0337 23.3161 13.9846 23.391 13.9202C23.4658 13.8558 23.5273 13.7772 23.5718 13.6891C23.6163 13.6009 23.643 13.5048 23.6504 13.4063C23.6578 13.3079 23.6457 13.2089 23.6149 13.1151C23.584 13.0212 23.5349 12.9344 23.4705 12.8595C23.4061 12.7847 23.3276 12.7232 23.2394 12.6787C23.1512 12.6342 23.0552 12.6075 22.9567 12.6001C21.7739 12.6045 20.5931 12.6972 19.4242 12.8776Z" fill="#00BBE4"/>
</svg>
