<svg width="169" height="30" viewBox="0 0 169 30" fill="none" xmlns="http://www.w3.org/2000/svg">
<path fill-rule="evenodd" clip-rule="evenodd" d="M10.6436 11.1826C11.789 9.46247 11.5516 8.67608 10.5112 8.67608H5.88003V20.796H10.5112C11.5898 20.796 11.5165 20.028 10.8722 18.6935L10.8714 18.6922L8.7947 15.0962C8.72467 14.9747 8.69043 14.8596 8.69164 14.7602C8.69043 14.6604 8.72467 14.5448 8.7947 14.4233L10.6424 11.2221L10.6436 11.1826ZM64.0691 25.7978H69.1881C70.0776 25.7978 71.2258 25.0698 71.7393 24.1803L81.7708 6.80539V25.7362H87.6589V3.72208H81.9427C78.8759 3.72208 76.602 4.11732 75.4626 6.08901L64.0691 25.7978ZM38.477 25.7978H43.5964C44.4855 25.7978 45.6337 25.0698 46.1473 24.1803L56.1788 6.80539V25.7362H62.0668V3.72208H56.3506C53.2838 3.72208 51.0099 4.11732 49.8705 6.08901L38.477 25.7978ZM2.82411 3.71484H2.82364H2.86349H2.87764L14.2719 3.72652C15.922 3.72772 17.2545 5.02771 17.2783 6.67742L17.3121 9.00127C17.3229 9.75228 17.1861 10.1354 16.8271 10.7572L14.7037 14.4362C14.6212 14.5786 14.5822 14.7131 14.5834 14.829C14.5822 14.9437 14.6208 15.0781 14.7037 15.2206L16.745 18.7571C17.1531 19.4646 17.2783 19.8228 17.2783 20.6704V22.8425C17.2783 24.4922 15.9216 25.7922 14.2719 25.7934L2.82364 25.8051L2.8289 25.7934L0 25.8051V3.72652L2.82411 3.71484Z" fill="#8DBF30"/>
<path fill-rule="evenodd" clip-rule="evenodd" d="M23.4236 10.0002C26.0525 10.0002 28.1849 12.1316 28.1849 14.7601C28.1849 17.3887 26.0525 19.5201 23.4236 19.5201C20.7963 19.5201 18.6641 17.3887 18.6641 14.7601C18.6641 12.1316 20.7963 10.0002 23.4236 10.0002ZM23.5552 29.1516H30.2105C31.366 29.1516 32.8587 28.2058 33.5263 27.0491L40.0146 15.813C40.2351 15.4303 40.3381 15.0704 40.3381 14.7601C40.3381 14.4506 40.2351 14.0905 40.0146 13.7073L33.5263 2.47162C32.8587 1.31412 31.366 0.369141 30.2105 0.369141H23.5552L31.8642 14.7601L23.5552 29.1516ZM168.998 3.72086H163.093V3.74743C160.681 3.86857 159.282 4.53346 158.346 6.15178L155.177 11.6253L152.008 6.15178C151.068 4.5242 149.657 3.86014 147.218 3.74503V3.72129H141.313V25.8002H147.218V9.49831L149.802 13.9733C150.315 14.8628 151.465 15.5909 152.353 15.5909H152.882H157.473H158.002C158.891 15.5909 160.039 14.8628 160.552 13.9733L163.093 9.57558V25.799H168.998V3.72086ZM113.83 25.83H108.709C107.819 25.83 106.672 25.1032 106.159 24.2133L101.169 15.5695C100.999 15.2765 100.919 14.9992 100.92 14.761C100.919 14.5223 100.999 14.2442 101.169 13.9508L106.159 5.30742C106.672 4.41757 107.819 3.69028 108.709 3.69028H113.83L107.438 14.7601L113.83 25.83ZM100.239 3.72129H94.3327V25.7998H100.239V3.72129ZM125.775 2.59879C132.492 2.59879 137.936 8.04537 137.936 14.7601C137.936 21.4745 132.492 26.9219 125.775 26.9219C119.06 26.9219 113.615 21.4745 113.615 14.7601C113.615 8.04537 119.06 2.59879 125.775 2.59879ZM125.775 7.98139C129.518 7.98139 132.555 11.0172 132.555 14.7601C132.555 18.5039 129.518 21.5393 125.775 21.5393C122.033 21.5393 118.996 18.5039 118.996 14.7601C118.996 11.0172 122.033 7.98139 125.775 7.98139Z" fill="#00A2DE"/>
</svg>
