<svg width="44" height="59" viewBox="0 0 44 59" fill="none" xmlns="http://www.w3.org/2000/svg">
<path fill-rule="evenodd" clip-rule="evenodd" d="M9.6623 39.2577C14.9992 39.2577 19.3279 34.8885 19.3279 29.5004C19.3279 24.1124 14.9992 19.7431 9.6623 19.7431C4.32866 19.7431 0 24.1124 0 29.5004C0 34.8885 4.32866 39.2577 9.6623 39.2577ZM9.92943 -3.8147e-06H23.4401C25.7858 -3.8147e-06 28.8161 1.93869 30.1716 4.30975L43.3432 27.3422C43.7909 28.1268 44 28.8644 44 29.5004C44 30.1349 43.7909 30.8732 43.3432 31.6586L30.1716 54.6902C28.8161 57.0629 25.7858 59 23.4401 59H9.92943L26.7973 29.5004L9.92943 -3.8147e-06Z" fill="white"/>
</svg>
