<svg width="26" height="26" viewBox="0 0 26 26" fill="none" xmlns="http://www.w3.org/2000/svg">
<path d="M13.0006 0C7.1859 0 3.71484 3.8183 3.71484 10.2143C3.71484 17.1917 11.9978 25.3892 12.3506 25.7345C12.7117 26.0885 13.2895 26.0885 13.6506 25.7345C14.0034 25.3891 22.2863 17.1917 22.2863 10.2143C22.2864 3.8183 18.8154 0 13.0006 0ZM13.0006 23.7353C11.0803 21.6869 5.57203 15.3642 5.57203 10.2143C5.57203 4.82856 8.21009 1.85714 13.0006 1.85714C17.7911 1.85714 20.4292 4.82856 20.4292 10.2143C20.4292 15.3568 14.92 21.686 13.0006 23.7353Z" fill="#00BBE4"/>
<path d="M12.9983 3.71432C10.4342 3.71432 8.35547 5.79301 8.35547 8.35719C8.35547 10.9214 10.4342 13.0001 12.9983 13.0001C15.5625 13.0001 17.6412 10.9214 17.6412 8.35719C17.6382 5.79426 15.5613 3.71737 12.9983 3.71432ZM12.9983 11.1429C11.4598 11.1429 10.2126 9.89571 10.2126 8.35719C10.2126 6.81867 11.4598 5.57146 12.9983 5.57146C14.5369 5.57146 15.7841 6.81867 15.7841 8.35719C15.7841 9.89571 14.5369 11.1429 12.9983 11.1429Z" fill="#00BBE4"/>
</svg>
