<svg width="26" height="26" viewBox="0 0 26 26" fill="none" xmlns="http://www.w3.org/2000/svg">
<g clip-path="url(#clip0_2258_8919)">
<path d="M21.0785 12.7041C23.7432 10.3086 23.9614 6.20646 21.5659 3.54176C19.3688 1.09779 15.6913 0.682606 13.0046 2.57525C10.0758 0.508281 6.026 1.20694 3.95903 4.13568C2.06242 6.82306 2.47592 10.5044 4.92146 12.704C1.88282 14.3058 -0.0136908 17.4637 7.44296e-05 20.8986V23.6843C7.44296e-05 24.1972 0.415808 24.6129 0.928659 24.6129H25.0714C25.5842 24.6129 26 24.1972 26 23.6843V20.8986C26.0137 17.4637 24.1172 14.3058 21.0785 12.7041ZM16.7142 3.2559C19.2748 3.25307 21.3528 5.32651 21.3557 7.88707C21.3577 9.71323 20.2876 11.3704 18.6224 12.12C18.5509 12.1525 18.4794 12.1822 18.407 12.2129C18.1779 12.3053 17.9415 12.3789 17.7004 12.4329C17.654 12.4432 17.6075 12.4487 17.5602 12.458C17.2907 12.5096 17.0173 12.5373 16.743 12.5407C16.6195 12.5407 16.4951 12.5314 16.3716 12.5203C16.3251 12.5203 16.2787 12.5203 16.2323 12.511C15.7045 12.4488 15.1911 12.2975 14.7141 12.0634C14.6964 12.055 14.676 12.0559 14.6584 12.0485C14.5655 12.004 14.4727 11.965 14.39 11.9148C14.3975 11.9055 14.4021 11.8953 14.4095 11.886C14.8353 11.3389 15.171 10.7273 15.404 10.0744L15.4327 9.99637C15.5387 9.6845 15.6209 9.36513 15.6788 9.04085C15.6872 8.99352 15.6937 8.94798 15.7011 8.89694C15.7548 8.56685 15.7831 8.23316 15.7856 7.89871C15.783 7.56492 15.7547 7.23183 15.7011 6.90234C15.6937 6.85408 15.6872 6.80946 15.6788 6.75843C15.6209 6.43421 15.5387 6.11478 15.4327 5.80291L15.404 5.72489C15.171 5.07193 14.8352 4.46039 14.4095 3.91326C14.402 3.90395 14.3974 3.89378 14.39 3.88447C15.0955 3.47293 15.8975 3.25595 16.7142 3.2559ZM4.64289 7.89877C4.63631 5.34126 6.7042 3.26264 9.26171 3.25606C10.4605 3.25296 11.6139 3.71494 12.4791 4.54477C12.5329 4.59679 12.5859 4.64875 12.6378 4.70261C12.7973 4.8697 12.9444 5.04816 13.078 5.23652C13.1189 5.29408 13.156 5.3554 13.1941 5.41482C13.3238 5.61455 13.4378 5.82413 13.5348 6.0416C13.5581 6.09454 13.5757 6.1484 13.5961 6.20129C13.694 6.44182 13.771 6.69036 13.8264 6.94412C13.8329 6.97198 13.8348 6.99984 13.8403 7.02862C13.958 7.60518 13.958 8.19959 13.8403 8.77616C13.8348 8.80494 13.8329 8.83279 13.8264 8.86065C13.7711 9.11441 13.694 9.36295 13.5961 9.60349C13.5757 9.65643 13.558 9.71029 13.5348 9.76318C13.4376 9.98032 13.3237 10.1896 13.1941 10.389C13.156 10.4484 13.1189 10.5098 13.078 10.5673C12.9444 10.7557 12.7973 10.9341 12.6378 11.1012C12.5858 11.1551 12.5329 11.2071 12.4791 11.2591C12.1031 11.6174 11.6697 11.9099 11.1967 12.1245C11.1215 12.1588 11.0454 12.1904 10.9683 12.2174C10.7445 12.3062 10.5142 12.3776 10.2794 12.4309C10.2209 12.4439 10.1605 12.4513 10.1011 12.4616C9.84894 12.5085 9.59327 12.5342 9.33685 12.5386H9.23472C8.9783 12.5343 8.72263 12.5085 8.47051 12.4616C8.41109 12.4513 8.3507 12.4439 8.29221 12.4309C8.05739 12.3776 7.82702 12.3062 7.60324 12.2174C7.52614 12.1867 7.45003 12.1552 7.37483 12.1245C5.71353 11.3744 4.64501 9.7215 4.64289 7.89877ZM16.7142 22.7558H1.85719V20.8987C1.84359 17.7521 3.82611 14.9427 6.79528 13.901C8.38922 14.5646 10.1821 14.5646 11.7761 13.901C12.0861 14.0143 12.3883 14.148 12.6806 14.3013C12.8737 14.4006 13.052 14.5139 13.2377 14.6281C13.3584 14.7033 13.481 14.7767 13.5971 14.8593C13.7763 14.9865 13.9453 15.1249 14.1115 15.2669C14.2183 15.3598 14.3241 15.4526 14.4244 15.5455C14.5776 15.6904 14.7215 15.8436 14.8599 16.0005C14.9592 16.1138 15.0558 16.2289 15.1478 16.3478C15.2694 16.5038 15.3855 16.6636 15.4932 16.8279C15.5861 16.9672 15.6687 17.112 15.7504 17.2569C15.8433 17.4166 15.9287 17.5763 16.0066 17.7425C16.0847 17.9087 16.1534 18.0907 16.2202 18.2681C16.2787 18.4222 16.3409 18.5755 16.3892 18.7324C16.4542 18.9478 16.4997 19.1706 16.5452 19.3935C16.573 19.5253 16.6093 19.6544 16.6297 19.7881C16.6847 20.1557 16.7129 20.5269 16.7142 20.8987V22.7558H16.7142ZM24.1428 22.7558H18.5714V20.8987C18.5714 20.608 18.5547 20.3202 18.5287 20.0351C18.5212 19.9516 18.5083 19.8689 18.499 19.7853C18.4739 19.5801 18.4451 19.3768 18.4061 19.1753C18.3894 19.0892 18.3718 19.0028 18.3532 18.9162C18.3086 18.7094 18.2569 18.5045 18.1981 18.3015C18.1786 18.2346 18.1609 18.1668 18.1405 18.1009C17.8805 17.2697 17.5037 16.4797 17.0216 15.7544L16.9854 15.7015C16.8257 15.4644 16.6551 15.2351 16.4737 15.0135L16.4673 15.0051C16.2816 14.7748 16.08 14.551 15.8683 14.3393C15.8804 14.3393 15.8934 14.3393 15.9064 14.3393C16.1684 14.3737 16.4323 14.3923 16.6966 14.395H16.7477C16.9924 14.3929 17.2366 14.377 17.4795 14.3477C17.5556 14.3384 17.6308 14.3244 17.7069 14.3124C17.9045 14.2821 18.0995 14.2427 18.2919 14.1945C18.3467 14.1805 18.4025 14.1675 18.4582 14.1517C18.7108 14.083 18.9589 13.9986 19.201 13.8992C22.1723 14.9398 24.1567 17.7505 24.1428 20.8987V22.7558H24.1428Z" fill="#00BBE4"/>
</g>
<defs>
<clipPath id="clip0_2258_8919">
<rect width="26" height="26" fill="white"/>
</clipPath>
</defs>
</svg>
