<svg width="26" height="26" viewBox="0 0 26 26" fill="none" xmlns="http://www.w3.org/2000/svg">
<g clip-path="url(#clip0_2258_8960)">
<path d="M22.3928 4.00103C19.9388 1.43961 16.5435 -0.00592503 12.9963 0.000601841C5.82769 -0.008427 0.00903912 5.79554 1.02913e-05 12.9642C-0.00444973 16.5088 1.44093 19.901 4.00044 22.3532C4.00789 22.3606 4.01066 22.3718 4.01806 22.3783C4.09323 22.4507 4.17492 22.512 4.25107 22.5816C4.45993 22.7673 4.66879 22.9594 4.8888 23.1386C5.00666 23.2314 5.1292 23.3242 5.2499 23.4096C5.45783 23.5646 5.66577 23.7196 5.88295 23.8626C6.03056 23.9555 6.1828 24.0483 6.33406 24.1411C6.53455 24.2618 6.73416 24.3834 6.94117 24.4938C7.11663 24.5867 7.29574 24.6665 7.47398 24.7509C7.66892 24.8438 7.86108 24.9366 8.06064 25.0201C8.2602 25.1037 8.46073 25.1687 8.66307 25.241C8.8654 25.3134 9.03994 25.3803 9.23395 25.4397C9.45303 25.5056 9.67767 25.5566 9.90045 25.6114C10.0861 25.6569 10.2662 25.7089 10.4574 25.746C10.7136 25.7971 10.9735 25.8296 11.2335 25.8649C11.3941 25.8872 11.5509 25.9187 11.7133 25.9345C12.1385 25.9762 12.5673 25.9995 12.9999 25.9995C13.4325 25.9995 13.8613 25.9762 14.2865 25.9345C14.4489 25.9187 14.6058 25.8872 14.7663 25.8649C15.0263 25.8296 15.2862 25.7971 15.5424 25.746C15.728 25.7089 15.9137 25.6532 16.0993 25.6114C16.3221 25.5566 16.5468 25.5055 16.7658 25.4397C16.9599 25.3803 17.1473 25.3079 17.3367 25.241C17.5261 25.1742 17.7414 25.1018 17.9392 25.0201C18.1369 24.9384 18.3309 24.8428 18.5258 24.7509C18.7041 24.6665 18.8832 24.5866 19.0586 24.4938C19.2656 24.3834 19.4652 24.2617 19.6657 24.1411C19.817 24.0483 19.9693 23.9638 20.1168 23.8626C20.3341 23.7197 20.542 23.5647 20.7499 23.4096C20.8706 23.3168 20.9931 23.2332 21.111 23.1386C21.331 22.9622 21.5399 22.7747 21.7487 22.5816C21.8248 22.512 21.9065 22.4508 21.9817 22.3783C21.9891 22.3718 21.992 22.3607 21.9994 22.3532C27.1759 17.394 27.352 9.17744 22.3928 4.00103ZM20.3064 21.3813C20.1375 21.5299 19.9629 21.671 19.7866 21.8074C19.6826 21.8873 19.5787 21.9661 19.4719 22.0423C19.3039 22.1639 19.1331 22.279 18.9595 22.3895C18.8332 22.4702 18.7042 22.5482 18.5742 22.6243C18.4108 22.7172 18.2447 22.8099 18.0767 22.9028C17.9281 22.9789 17.7768 23.0504 17.6246 23.121C17.4724 23.1915 17.3044 23.2667 17.1401 23.3326C16.9757 23.3985 16.8013 23.4607 16.6295 23.5182C16.4726 23.5721 16.3158 23.6278 16.157 23.6751C15.9714 23.7308 15.7774 23.7763 15.5852 23.8227C15.4348 23.8579 15.2863 23.8979 15.1341 23.9276C14.9141 23.9703 14.6894 24 14.4639 24.0306C14.3358 24.0473 14.2086 24.0706 14.0795 24.0836C13.7231 24.1179 13.362 24.1383 12.9972 24.1383C12.6324 24.1383 12.2713 24.1179 11.9148 24.0836C11.7858 24.0706 11.6586 24.0473 11.5305 24.0306C11.3049 24 11.0803 23.9703 10.8603 23.9276C10.708 23.8979 10.5595 23.858 10.4092 23.8227C10.217 23.7763 10.0258 23.7299 9.83736 23.6751C9.67865 23.6278 9.52173 23.5721 9.36487 23.5182C9.19316 23.4588 9.02139 23.3985 8.8543 23.3326C8.68722 23.2667 8.52943 23.1943 8.36974 23.121C8.21005 23.0476 8.06618 22.9789 7.9177 22.9028C7.74969 22.8155 7.58352 22.7236 7.42013 22.6243C7.29019 22.5482 7.16113 22.4702 7.03488 22.3895C6.86132 22.279 6.69048 22.1639 6.52247 22.0423C6.4157 21.9662 6.31176 21.8873 6.20777 21.8074C6.03138 21.671 5.85689 21.5289 5.68796 21.3813C5.64711 21.3507 5.60996 21.3117 5.57009 21.2764C5.61159 18.1187 7.6402 15.3304 10.632 14.319C12.1279 15.0306 13.8647 15.0306 15.3606 14.319C18.3523 15.3304 20.3809 18.1186 20.4224 21.2764C20.3834 21.3117 20.3463 21.347 20.3064 21.3813ZM9.75931 7.4433C10.7644 5.65581 13.0282 5.02156 14.8157 6.02664C16.6032 7.03173 17.2374 9.29552 16.2323 11.083C15.8989 11.6761 15.4088 12.1661 14.8157 12.4997C14.811 12.4997 14.8054 12.4997 14.7999 12.5052C14.5537 12.6422 14.2936 12.7524 14.0239 12.8338C13.9756 12.8478 13.931 12.8663 13.88 12.8784C13.7871 12.9025 13.6897 12.9192 13.5941 12.9359C13.414 12.9674 13.2319 12.9857 13.0492 12.9907H12.9433C12.7606 12.9857 12.5785 12.9674 12.3984 12.9359C12.3056 12.9192 12.2072 12.9025 12.1126 12.8784C12.0633 12.8663 12.0197 12.8478 11.9687 12.8338C11.699 12.7524 11.4388 12.6423 11.1927 12.5052L11.176 12.4997C9.38847 11.4946 8.75422 9.23079 9.75931 7.4433ZM22.0691 19.4357C21.4735 16.6573 19.6439 14.3018 17.0992 13.0372C19.1794 10.7712 19.0287 7.24798 16.7627 5.16782C14.4968 3.08765 10.9735 3.23831 8.89336 5.50428C6.9378 7.63454 6.9378 10.907 8.89336 13.0372C6.34869 14.3018 4.5191 16.6573 3.92342 19.4357C0.363883 14.4218 1.54285 7.47169 6.55674 3.91216C11.5706 0.352618 18.5208 1.53159 22.0803 6.54548C23.4184 8.43027 24.1366 10.6848 24.1355 12.9963C24.1355 15.3058 23.413 17.5574 22.0691 19.4357Z" fill="#00BBE4"/>
</g>
<defs>
<clipPath id="clip0_2258_8960">
<rect width="26" height="26" fill="white"/>
</clipPath>
</defs>
</svg>
