<svg width="26" height="26" viewBox="0 0 26 26" fill="none" xmlns="http://www.w3.org/2000/svg">
<path d="M18.5714 4.64284H2.78571C1.2472 4.64284 0 5.89004 0 7.42855V23.2143C0 24.7528 1.2472 26 2.78571 26H18.5714C20.1099 26 21.3571 24.7528 21.3571 23.2143V7.42855C21.3571 5.89004 20.1099 4.64284 18.5714 4.64284ZM19.5 23.2143C19.5 23.7272 19.0843 24.1429 18.5714 24.1429H2.78571C2.27286 24.1429 1.85712 23.7272 1.85712 23.2143V7.42855C1.85712 6.9157 2.27286 6.49996 2.78571 6.49996H18.5714C19.0843 6.49996 19.5 6.9157 19.5 7.42855V23.2143Z" fill="#00BBE4"/>
<path d="M23.2148 0H6.50056C4.96205 0 3.71484 1.2472 3.71484 2.78571C3.71484 3.29857 4.13058 3.7143 4.64343 3.7143C5.15629 3.7143 5.57197 3.29857 5.57197 2.78571C5.57197 2.27286 5.9877 1.85712 6.50056 1.85712H23.2148C23.7277 1.85712 24.1434 2.27286 24.1434 2.78571V19.5C24.1434 20.0128 23.7277 20.4286 23.2148 20.4286C22.702 20.4286 22.2862 20.8443 22.2862 21.3572C22.2862 21.87 22.702 22.2858 23.2148 22.2858C24.7533 22.2858 26.0005 21.0385 26.0005 19.5V2.78571C26.0005 1.2472 24.7533 0 23.2148 0Z" fill="#00BBE4"/>
</svg>
