<svg width="26" height="26" viewBox="0 0 26 26" fill="none" xmlns="http://www.w3.org/2000/svg">
<g clip-path="url(#clip0_2258_8875)">
<path d="M25.5598 6.63838C25.2861 6.46911 24.9442 6.45366 24.6563 6.59752L18.5714 9.64042V7.42855C18.5714 5.89004 17.3242 4.64284 15.7857 4.64284H2.78571C1.2472 4.64284 0 5.89004 0 7.42855V18.5714C0 20.1099 1.2472 21.3571 2.78571 21.3571H15.7857C17.3242 21.3571 18.5714 20.1099 18.5714 18.5714V16.3595L24.6563 19.4071C25.1151 19.6364 25.6728 19.4503 25.9021 18.9916C25.9672 18.8611 26.0008 18.7172 26 18.5714V7.42855C26.0002 7.10667 25.8336 6.8077 25.5598 6.63838ZM16.7143 18.5714C16.7143 19.0843 16.2985 19.5 15.7857 19.5H2.78571C2.27286 19.5 1.85712 19.0843 1.85712 18.5714V7.42855C1.85712 6.9157 2.27286 6.49996 2.78571 6.49996H15.7857C16.2985 6.49996 16.7143 6.9157 16.7143 7.42855V18.5714ZM24.1428 17.069L18.5714 14.2833V11.7168L24.1428 8.93104V17.069Z" fill="#00BBE4"/>
<path d="M9.28462 9.28572C7.23325 9.28572 5.57031 10.9487 5.57031 13C5.57031 15.0514 7.23325 16.7143 9.28462 16.7143C11.336 16.7143 12.9989 15.0514 12.9989 13C12.9989 10.9487 11.3359 9.28572 9.28462 9.28572ZM9.28462 14.8571C8.25896 14.8571 7.42749 14.0257 7.42749 13C7.42749 11.9744 8.25896 11.1429 9.28462 11.1429C10.3103 11.1429 11.1417 11.9744 11.1417 13C11.1417 14.0257 10.3103 14.8571 9.28462 14.8571Z" fill="#00BBE4"/>
</g>
<defs>
<clipPath id="clip0_2258_8875">
<rect width="26" height="26" fill="white"/>
</clipPath>
</defs>
</svg>
