<svg width="23" height="23" viewBox="0 0 23 23" fill="none" xmlns="http://www.w3.org/2000/svg">
<path d="M9.29988 21.5355C9.25424 21.5355 9.20815 21.5321 9.16166 21.5249C6.63424 21.1346 4.31633 19.8491 2.63492 17.9051C0.93576 15.9406 0 13.4265 0 10.8261C0 7.9343 1.12609 5.21566 3.17088 3.17087C5.21566 1.12609 7.93431 0 10.8261 0C13.461 0 16.0004 0.957816 17.9762 2.697C19.9339 4.4201 21.2043 6.78557 21.5533 9.3576C21.62 9.84926 21.2756 10.3019 20.7839 10.3687C20.2919 10.4354 19.8395 10.0909 19.7728 9.59928C19.1691 5.15115 15.3229 1.79686 10.8261 1.79686C5.84734 1.79686 1.79686 5.84734 1.79686 10.8261C1.79686 15.2406 5.08089 19.0766 9.43586 19.7491C9.92622 19.8248 10.2624 20.2837 10.1866 20.7741C10.1181 21.218 9.73553 21.5355 9.29988 21.5355ZM8.14144 14.8262L11.4656 11.4571C11.6315 11.289 11.7245 11.0623 11.7245 10.8261V4.13278C11.7245 3.63657 11.3223 3.23435 10.8261 3.23435C10.3299 3.23435 9.92766 3.63657 9.92766 4.13278V10.4575L6.86235 13.5642C6.51385 13.9174 6.51766 14.4862 6.87088 14.8347C7.04594 15.0075 7.27396 15.0936 7.50185 15.0936C7.73382 15.0936 7.96566 15.0043 8.14144 14.8262ZM22.9849 18.0418C23.0749 17.5538 22.7524 17.0853 22.2644 16.9952C21.7765 16.9053 21.3079 17.2278 21.2179 17.7157C20.845 19.7363 19.0801 21.2029 17.0213 21.2029C14.6682 21.2029 12.7538 19.2885 12.7538 16.9354C12.7538 14.5823 14.6682 12.6679 17.0213 12.6679C17.4125 12.6679 17.7998 12.7206 18.1723 12.8246C18.6502 12.9581 19.1458 12.6788 19.2792 12.2009C19.4127 11.7231 19.1334 11.2275 18.6556 11.094C18.1257 10.9461 17.5759 10.871 17.0213 10.871C13.6774 10.871 10.9569 13.5915 10.9569 16.9354C10.9569 20.2794 13.6774 22.9999 17.0213 22.9999C19.9468 22.9998 22.4548 20.9146 22.9849 18.0418ZM18.1298 18.4949L22.0557 14.6091C22.4083 14.2601 22.4113 13.6912 22.0622 13.3385C21.7131 12.9859 21.1443 12.9829 20.7916 13.332L17.0246 17.0606L15.8598 15.8958C15.5089 15.5449 14.94 15.5449 14.5892 15.8958C14.2384 16.2467 14.2383 16.8155 14.5892 17.1663L15.9121 18.4892C16.2181 18.7952 16.6209 18.9483 17.0239 18.9483C17.424 18.9483 17.8244 18.7973 18.1298 18.4949Z" fill="#00BBE4"/>
</svg>
