<svg width="70" height="70" viewBox="0 0 70 70" fill="none" xmlns="http://www.w3.org/2000/svg">
<path d="M19.9936 45.6341L12.9527 38.5934C11.5731 37.2168 9.74432 36.4584 7.79607 36.4584H2.91932C2.11432 36.4584 1.46094 37.1118 1.46094 37.9168C1.46094 38.7218 2.11432 39.375 2.91932 39.375H7.79594C8.94506 39.375 10.0738 39.8416 10.8876 40.6554L15.4404 45.2082H2.91932C2.11432 45.2082 1.46094 45.8616 1.46094 46.6666C1.46094 47.4716 2.11432 48.125 2.91932 48.125H18.9609C19.5501 48.125 20.0809 47.7691 20.3084 47.2237C20.5359 46.6784 20.4106 46.0512 19.9936 45.6341Z" fill="#8DBF30"/>
<path d="M18.9558 52.5C18.1508 52.5 17.4974 53.1534 17.4974 53.9584V58.3334C17.4974 59.1384 16.8412 59.7918 16.0391 59.7918H7.28906C6.48693 59.7918 5.83068 59.1384 5.83068 58.3334V52.5C5.83068 51.695 5.1773 51.0416 4.3723 51.0416C3.5673 51.0416 2.91406 51.695 2.91406 52.5V58.3334C2.91406 60.7455 4.87693 62.7084 7.28906 62.7084H16.0391C18.4512 62.7084 20.4141 60.7455 20.4141 58.3334V53.9584C20.4141 53.1534 19.7608 52.5 18.9558 52.5Z" fill="#8DBF30"/>
<path d="M63.3821 27.8746C59.363 25.7717 50.3418 24.7917 35 24.7917C19.6582 24.7917 10.6371 25.7717 6.61787 27.8746C2.03875 30.2662 0 34.2621 0 40.8334C0 47.1509 1.44662 52.6459 1.50787 52.8762C1.67699 53.515 2.25449 53.9584 2.91662 53.9584H15.6975L21.2216 56.7205C21.4257 56.8226 21.6504 56.8751 21.875 56.8751H48.125C48.3496 56.8751 48.5741 56.8226 48.7754 56.7205L54.3025 53.9584H67.0834C67.7455 53.9584 68.323 53.515 68.4921 52.8762C68.5534 52.6459 70 47.1509 70 40.8334C70 34.2621 67.9613 30.2662 63.3821 27.8746ZM65.9313 51.0416H53.9613C53.7337 51.0416 53.5091 51.0941 53.3079 51.1962L47.7807 53.9584H22.2191L16.695 51.1962C16.4909 51.0941 16.2663 51.0416 16.0416 51.0416H4.07162C3.66625 49.1837 2.91662 45.1704 2.91662 40.8332C2.91662 35.3411 4.38074 32.3341 7.96537 30.4586C11.4595 28.6327 20.5537 27.7082 35 27.7082C49.4463 27.7082 58.5404 28.6329 62.0346 30.4586C65.6193 32.334 67.0834 35.3411 67.0834 40.8332C67.0834 45.1704 66.3337 49.1837 65.9313 51.0416Z" fill="#8DBF30"/>
<path d="M67.0853 45.2084H54.564L59.114 40.6555C59.9306 39.8418 61.0565 39.3751 62.2086 39.3751H67.0853C67.8903 39.3751 68.5436 38.7218 68.5436 37.9168C68.5436 37.1118 67.8903 36.4584 67.0853 36.4584H62.2086C60.2603 36.4584 58.4315 37.2168 57.052 38.5934L50.0111 45.6343C49.597 46.0514 49.4715 46.6784 49.6961 47.2239C49.9208 47.7694 50.4545 48.1251 51.0436 48.1251H67.0853C67.8903 48.1251 68.5436 47.4718 68.5436 46.6668C68.5435 45.8616 67.8903 45.2084 67.0853 45.2084Z" fill="#8DBF30"/>
<path d="M52.3634 37.2984C52.1213 36.785 51.608 36.4584 51.0421 36.4584H18.9589C18.393 36.4584 17.8798 36.785 17.6377 37.2984C17.3985 37.8087 17.4743 38.4155 17.8389 38.85L25.1305 47.6C25.4077 47.9325 25.8189 48.125 26.2505 48.125H43.7505C44.1821 48.125 44.5934 47.9325 44.8705 47.6L52.1621 38.85C52.5268 38.4154 52.6026 37.8087 52.3634 37.2984ZM43.0651 45.2084H26.933L22.0709 39.375H47.9271L43.0651 45.2084Z" fill="#8DBF30"/>
<path d="M64.0495 28.5862C62.3899 24.7712 56.8366 12.1975 54.9057 10.5554C52.4995 8.51075 45.6074 7.29163 36.4607 7.29163H33.5441C24.3975 7.29163 17.5054 8.51075 15.0991 10.5525C13.1682 12.1946 7.61199 24.7684 5.95537 28.5834C5.6375 29.3243 5.97574 30.1818 6.71375 30.5025C7.44875 30.8234 8.31213 30.4879 8.63287 29.7471C11.9257 22.1668 15.9537 13.7434 16.9891 12.778C18.112 11.8243 22.8632 10.2084 33.5441 10.2084H36.4607C47.1416 10.2084 51.8929 11.8243 53.0099 12.7721C54.0511 13.7434 58.079 22.1638 61.372 29.7471C61.6111 30.2984 62.1507 30.625 62.7107 30.625C62.9032 30.625 63.1045 30.5871 63.2911 30.5054C64.029 30.1846 64.3674 29.3241 64.0495 28.5862Z" fill="#8DBF30"/>
<path d="M65.6278 51.0416C64.8228 51.0416 64.1695 51.695 64.1695 52.5V58.3334C64.1695 59.1384 63.5132 59.7918 62.7111 59.7918H53.9611C53.1589 59.7918 52.5027 59.1384 52.5027 58.3334V53.9584C52.5027 53.1534 51.8493 52.5 51.0443 52.5C50.2393 52.5 49.5859 53.1534 49.5859 53.9584V58.3334C49.5859 60.7455 51.5488 62.7084 53.9609 62.7084H62.7109C65.1231 62.7084 67.0859 60.7455 67.0859 58.3334V52.5C67.0862 51.695 66.4328 51.0416 65.6278 51.0416Z" fill="#8DBF30"/>
</svg>
