<svg width="70" height="70" viewBox="0 0 70 70" fill="none" xmlns="http://www.w3.org/2000/svg">
<path d="M56.8776 0H13.1276C9.10543 0 5.83594 3.2725 5.83594 7.29162V56.875C5.83594 60.8941 9.10557 64.1666 13.1276 64.1666H56.8776C60.8997 64.1666 64.1692 60.8941 64.1692 56.875V7.29162C64.1692 3.2725 60.8997 0 56.8776 0ZM61.2526 56.875C61.2526 59.2871 59.2897 61.25 56.8776 61.25H13.1276C10.7154 61.25 8.75256 59.2871 8.75256 56.875V7.29162C8.75256 4.87949 10.7154 2.91662 13.1276 2.91662H56.8776C59.2897 2.91662 61.2526 4.87949 61.2526 7.29162V56.875Z" fill="#8DBF30"/>
<path d="M7.29162 32.0834H4.375C3.57287 32.0834 2.91662 31.43 2.91662 30.625V27.7084C2.91662 25.2963 4.87949 23.3334 7.29162 23.3334C8.09662 23.3334 8.75 22.68 8.75 21.875C8.75 21.07 8.09662 20.4166 7.29162 20.4166C3.26963 20.4166 0 23.6891 0 27.7084V30.625C0 33.0371 1.96287 35 4.375 35H7.29162C8.09662 35 8.75 34.3466 8.75 33.5416C8.75 32.7366 8.09662 32.0834 7.29162 32.0834Z" fill="#8DBF30"/>
<path d="M62.7084 20.4166C61.9034 20.4166 61.25 21.07 61.25 21.875C61.25 22.68 61.9034 23.3334 62.7084 23.3334C65.1205 23.3334 67.0834 25.2963 67.0834 27.7084V30.625C67.0834 31.43 66.4271 32.0834 65.625 32.0834H62.7084C61.9034 32.0834 61.25 32.7368 61.25 33.5418C61.25 34.3468 61.9034 35 62.7084 35H65.625C68.0371 35 70 33.0371 70 30.625V27.7084C70 23.6891 66.7304 20.4166 62.7084 20.4166Z" fill="#8DBF30"/>
<path d="M18.9609 46.6666C16.5488 46.6666 14.5859 48.6295 14.5859 51.0416C14.5859 53.4538 16.5488 55.4166 18.9609 55.4166C21.3731 55.4166 23.3359 53.4538 23.3359 51.0416C23.3359 48.6296 21.3729 46.6666 18.9609 46.6666ZM18.9609 52.5C18.1588 52.5 17.5026 51.8466 17.5026 51.0416C17.5026 50.2366 18.1588 49.5832 18.9609 49.5832C19.7631 49.5832 20.4193 50.2366 20.4193 51.0416C20.4192 51.8466 19.7629 52.5 18.9609 52.5Z" fill="#8DBF30"/>
<path d="M51.0391 46.6666C48.6269 46.6666 46.6641 48.6295 46.6641 51.0416C46.6641 53.4538 48.6269 55.4166 51.0391 55.4166C53.4512 55.4166 55.4141 53.4538 55.4141 51.0416C55.4141 48.6296 53.4512 46.6666 51.0391 46.6666ZM51.0391 52.5C50.2369 52.5 49.5807 51.8466 49.5807 51.0416C49.5807 50.2366 50.2369 49.5832 51.0391 49.5832C51.8412 49.5832 52.4974 50.2366 52.4974 51.0416C52.4974 51.8466 51.8412 52.5 51.0391 52.5Z" fill="#8DBF30"/>
<path d="M24.7893 61.25C23.9843 61.25 23.331 61.9034 23.331 62.7084V65.625C23.331 66.43 22.6747 67.0834 21.8726 67.0834H16.0392C15.2371 67.0834 14.5808 66.43 14.5808 65.625V62.7084C14.5808 61.9034 13.9274 61.25 13.1224 61.25C12.3174 61.25 11.6641 61.9034 11.6641 62.7084V65.625C11.6641 68.0371 13.6269 70 16.0391 70H21.8727C24.2848 70 26.2477 68.0371 26.2477 65.625V62.7084C26.2477 61.9034 25.5943 61.25 24.7893 61.25Z" fill="#8DBF30"/>
<path d="M56.875 61.25C56.07 61.25 55.4166 61.9034 55.4166 62.7084V65.625C55.4166 66.43 54.7604 67.0834 53.9582 67.0834H48.125C47.3229 67.0834 46.6666 66.43 46.6666 65.625V62.7084C46.6666 61.9034 46.0132 61.25 45.2082 61.25C44.4032 61.25 43.75 61.9034 43.75 62.7084V65.625C43.75 68.0371 45.7129 70 48.125 70H53.9584C56.3705 70 58.3334 68.0371 58.3334 65.625V62.7084C58.3334 61.9034 57.68 61.25 56.875 61.25Z" fill="#8DBF30"/>
<path d="M51.0442 5.83337H18.9609C16.5488 5.83337 14.5859 7.79624 14.5859 10.2084C14.5859 12.6205 16.5488 14.5834 18.9609 14.5834H51.0443C53.4565 14.5834 55.4193 12.6205 55.4193 10.2084C55.4192 7.79624 53.4563 5.83337 51.0442 5.83337ZM51.0442 11.6666H18.9609C18.1588 11.6666 17.5026 11.0134 17.5026 10.2084C17.5026 9.40337 18.1588 8.74999 18.9609 8.74999H51.0443C51.8463 8.74999 52.5026 9.40337 52.5026 10.2084C52.5026 11.0134 51.8463 11.6666 51.0442 11.6666Z" fill="#8DBF30"/>
<path d="M53.9558 17.5H16.0391C13.6269 17.5 11.6641 19.4629 11.6641 21.875V36.4584C11.6641 38.8705 13.6269 40.8334 16.0391 40.8334H53.9557C56.3678 40.8334 58.3307 38.8705 58.3307 36.4584V21.875C58.3308 19.4629 56.3678 17.5 53.9558 17.5ZM55.4141 36.4584C55.4141 37.2634 54.7578 37.9168 53.9557 37.9168H16.0391C15.2369 37.9168 14.5807 37.2634 14.5807 36.4584V21.875C14.5807 21.07 15.2369 20.4166 16.0391 20.4166H53.9557C54.7578 20.4166 55.4141 21.07 55.4141 21.875V36.4584Z" fill="#8DBF30"/>
</svg>
