<svg width="37" height="37" viewBox="0 0 37 37" fill="none" xmlns="http://www.w3.org/2000/svg">
<path d="M18.4999 18.5476C8.74932 18.5476 0.816406 26.4806 0.816406 36.2311C0.816406 36.6555 1.16087 36.9999 1.58528 36.9999C2.00968 36.9999 2.35415 36.6555 2.35415 36.2311C2.35415 27.3278 9.59668 20.0853 18.4999 20.0853C27.4032 20.0853 34.6457 27.3278 34.6457 36.2311C34.6457 36.6555 34.9902 36.9999 35.4146 36.9999C35.839 36.9999 36.1834 36.6555 36.1834 36.2311C36.1834 26.479 28.2504 18.5476 18.4999 18.5476Z" fill="black"/>
<path d="M18.5003 0C13.8379 0 10.043 3.79346 10.043 8.45729C10.043 13.1211 13.838 16.9146 18.5003 16.9146C23.1625 16.9146 26.9575 13.1211 26.9575 8.45729C26.9575 3.79346 23.1626 0 18.5003 0ZM18.5003 15.3769C14.6852 15.3769 11.5806 12.2723 11.5806 8.45729C11.5806 4.64227 14.6852 1.53767 18.5003 1.53767C22.3153 1.53767 25.4199 4.64227 25.4199 8.45729C25.4199 12.2723 22.3153 15.3769 18.5003 15.3769Z" fill="black"/>
</svg>
