<svg width="51" height="51" viewBox="0 0 51 51" fill="none" xmlns="http://www.w3.org/2000/svg">
<g clip-path="url(#clip0_2255_6990)">
<path d="M25.4992 8.86963C21.2197 8.86963 17.7383 12.3509 17.7383 16.6305C17.7383 20.9102 21.2195 24.3914 25.4992 24.3914C29.7788 24.3914 33.2601 20.9101 33.2601 16.6305C33.2601 12.351 29.7788 8.86963 25.4992 8.86963ZM25.4992 22.174C22.4437 22.174 19.9557 19.6861 19.9557 16.6305C19.9557 13.575 22.4437 11.0871 25.4992 11.0871C28.5547 11.0871 31.0426 13.575 31.0426 16.6305C31.0426 19.6861 28.5548 22.174 25.4992 22.174Z" fill="#323E43"/>
<path d="M41.02 17.7393C37.9645 17.7393 35.4766 20.2272 35.4766 23.2827C35.4766 26.3382 37.9645 28.8261 41.02 28.8261C44.0755 28.8261 46.5634 26.3382 46.5634 23.2827C46.5634 20.2272 44.0755 17.7393 41.02 17.7393ZM41.02 26.6088C39.1862 26.6088 37.6939 25.1165 37.6939 23.2827C37.6939 21.4489 39.1862 19.9566 41.02 19.9566C42.8538 19.9566 44.3461 21.4489 44.3461 23.2827C44.3461 25.1165 42.8537 26.6088 41.02 26.6088Z" fill="#323E43"/>
<path d="M10.1372 17.7393C7.07937 17.7393 4.59375 20.2272 4.59375 23.2827C4.59375 26.3382 7.08166 28.8261 10.1372 28.8261C13.1927 28.8261 15.6806 26.3382 15.6806 23.2827C15.6806 20.2272 13.1949 17.7393 10.1372 17.7393ZM10.1372 26.6088C8.30337 26.6088 6.81111 25.1165 6.81111 23.2827C6.81111 21.4489 8.30337 19.9566 10.1372 19.9566C11.971 19.9566 13.4633 21.4489 13.4633 23.2827C13.4633 25.1165 11.9709 26.6088 10.1372 26.6088Z" fill="#323E43"/>
<path d="M25.499 26.6086C17.5518 26.6086 11.0859 33.0745 11.0859 41.0217C11.0859 41.6337 11.5827 42.1304 12.1947 42.1304C12.8067 42.1304 13.3034 41.6337 13.3034 41.0217C13.3034 34.2964 18.7737 28.8261 25.499 28.8261C32.2243 28.8261 37.6946 34.2964 37.6946 41.0217C37.6946 41.6337 38.1913 42.1304 38.8033 42.1304C39.4153 42.1304 39.9121 41.6337 39.9121 41.0217C39.9121 33.0745 33.4461 26.6086 25.499 26.6086Z" fill="#323E43"/>
<path d="M41.0218 31.0435C39.197 31.0435 37.4097 31.5424 35.8531 32.4848C35.332 32.8041 35.1635 33.4848 35.4806 34.0081C35.8021 34.5315 36.4806 34.6978 37.0039 34.3807C38.2123 33.6466 39.6005 33.2608 41.0218 33.2608C45.3014 33.2608 48.7827 36.7421 48.7827 41.0217C48.7827 41.6337 49.2795 42.1304 49.8915 42.1304C50.5035 42.1304 51.0002 41.6337 51.0002 41.0217C51.0001 35.5204 46.5232 31.0435 41.0218 31.0435Z" fill="#323E43"/>
<path d="M15.1448 32.4825C13.5904 31.5424 11.8032 31.0435 9.97825 31.0435C4.47691 31.0435 0 35.5204 0 41.0217C0 41.6337 0.49673 42.1304 1.10873 42.1304C1.72073 42.1304 2.21746 41.6337 2.21746 41.0217C2.21736 36.7421 5.69873 33.2608 9.97825 33.2608C11.3996 33.2608 12.7877 33.6466 13.994 34.3784C14.515 34.6955 15.198 34.5292 15.5173 34.0059C15.8366 33.4825 15.668 32.8018 15.1448 32.4825Z" fill="#323E43"/>
</g>
<defs>
<clipPath id="clip0_2255_6990">
<rect width="51" height="51" fill="white"/>
</clipPath>
</defs>
</svg>
