<svg width="23" height="23" viewBox="0 0 23 23" fill="none" xmlns="http://www.w3.org/2000/svg">
<g clip-path="url(#clip0_2257_7954)">
<path d="M16.7767 13.7108L16.7681 13.7827C14.6607 12.7324 14.4403 12.5925 14.1681 13.0007C13.9793 13.2834 13.4292 13.9245 13.2634 14.1143C13.0957 14.3012 12.929 14.3155 12.6444 14.1862C12.3569 14.0424 11.434 13.7405 10.3415 12.763C9.49049 12.0012 8.91932 11.0668 8.75065 10.7793C8.46986 10.2944 9.05732 10.2254 9.59207 9.21338C9.6879 9.01213 9.63903 8.854 9.56811 8.71121C9.49624 8.56746 8.92411 7.15871 8.68453 6.59713C8.45453 6.03746 8.21782 6.10838 8.04053 6.10838C7.48853 6.06046 7.08507 6.06813 6.72953 6.43804C5.18278 8.13813 5.57282 9.89188 6.89628 11.7568C9.49719 15.1608 10.8829 15.7875 13.4168 16.6577C14.101 16.8753 14.7249 16.8446 15.2184 16.7737C15.7685 16.6865 16.9118 16.0827 17.1504 15.4071C17.3948 14.7315 17.3948 14.1708 17.3229 14.0415C17.252 13.9121 17.0642 13.8402 16.7767 13.7108Z" fill="#00BBE4"/>
<path d="M19.665 3.30522C12.2964 -3.81807 0.101583 1.3483 0.0967916 11.3974C0.0967916 13.406 0.622916 15.3649 1.62533 17.0947L0 22.9999L6.07104 21.4167C13.6467 25.5088 22.9962 20.0751 23 11.4031C23 8.35946 21.8117 5.49501 19.6506 3.34259L19.665 3.30522ZM21.0852 11.3715C21.0795 18.6865 13.0496 23.2548 6.69875 19.5212L6.35375 19.3161L2.76 20.2505L3.72312 16.7573L3.49408 16.398C-0.458083 10.1065 4.0825 1.88401 11.569 1.88401C14.1124 1.88401 16.4996 2.87588 18.2975 4.67276C20.0943 6.4543 21.0852 8.8415 21.0852 11.3715Z" fill="#00BBE4"/>
</g>
<defs>
<clipPath id="clip0_2257_7954">
<rect width="23" height="23" fill="white"/>
</clipPath>
</defs>
</svg>
